<?xml version="1.0" encoding="UTF-8"?>
<svg version="1.1" xmlns="http://www.w3.org/2000/svg" width="1200" height="1200">
<path d="M0 0 C396 0 792 0 1200 0 C1200 396 1200 792 1200 1200 C804 1200 408 1200 0 1200 C0 804 0 408 0 0 Z " fill="#FEFEFE" transform="translate(0,0)"/>
<path d="M0 0 C0.9576123 0.65355469 0.9576123 0.65355469 1.93457031 1.3203125 C3.65574775 2.50054845 5.33193696 3.74581726 7 5 C7 5.66 7 6.32 7 7 C9.475 7.99 9.475 7.99 12 9 C12 9.66 12 10.32 12 11 C12.55171875 11.2475 13.1034375 11.495 13.671875 11.75 C16.45136707 13.24234474 18.7814707 15.03672523 21.25 17 C22.14203125 17.70125 23.0340625 18.4025 23.953125 19.125 C24.62859375 19.74375 25.3040625 20.3625 26 21 C26 21.66 26 22.32 26 23 C26.66 23 27.32 23 28 23 C28 23.66 28 24.32 28 25 C28.53109375 25.20625 29.0621875 25.4125 29.609375 25.625 C33.00773436 27.57961192 35.51055928 30.22123717 38.25 33 C39.08144531 33.81984375 39.08144531 33.81984375 39.9296875 34.65625 C44 38.7466133 44 38.7466133 44 41 C44.66 41 45.32 41 46 41 C47.39599396 42.52837269 48.71587649 44.12650099 50 45.75 C51.21236328 47.26980469 51.21236328 47.26980469 52.44921875 48.8203125 C53.082229 49.61550293 53.082229 49.61550293 53.72802734 50.42675781 C55.70386668 52.87057905 57.76713059 55.2392864 59.8125 57.625 C78.35655647 79.87786776 93.27241727 105.57716506 105 132 C105.29471191 132.65726074 105.58942383 133.31452148 105.89306641 133.99169922 C133.62942967 196.43328359 137.11645127 265.5897012 125 332 C124.84837402 332.86044922 124.69674805 333.72089844 124.54052734 334.60742188 C118.32960518 369.24439044 102.81740343 402.90303475 85 433 C84.6380957 433.61665527 84.27619141 434.23331055 83.90332031 434.86865234 C82.81966898 436.70971993 81.72467506 438.54346701 80.625 440.375 C79.97789062 441.45523437 79.33078125 442.53546875 78.6640625 443.6484375 C78.11492188 444.42445313 77.56578125 445.20046875 77 446 C76.34 446 75.68 446 75 446 C74.731875 446.721875 74.46375 447.44375 74.1875 448.1875 C73.00098638 450.99766383 71.72514361 453.48416557 70 456 C69.34 456 68.68 456 68 456 C67.67 457.32 67.34 458.64 67 460 C66.34 460 65.68 460 65 460 C64.67 461.32 64.34 462.64 64 464 C63.34 464 62.68 464 62 464 C61.7525 464.721875 61.505 465.44375 61.25 466.1875 C59.87730408 469.27606582 58.27646704 471.51011418 56 474 C55.34 474 54.68 474 54 474 C53.731875 474.5775 53.46375 475.155 53.1875 475.75 C51.97070811 478.05550043 50.69666121 480.02056192 49 482 C48.34 482 47.68 482 47 482 C46.62294922 482.86818359 46.62294922 482.86818359 46.23828125 483.75390625 C44.84407086 486.28283677 43.26209642 487.9343046 41.1875 489.9375 C40.47078125 490.63617187 39.7540625 491.33484375 39.015625 492.0546875 C38.01789063 493.01761719 38.01789063 493.01761719 37 494 C36.154375 494.845625 35.30875 495.69125 34.4375 496.5625 C33.633125 497.366875 32.82875 498.17125 32 499 C31.40960937 499.61359375 30.81921875 500.2271875 30.2109375 500.859375 C29.27121094 501.82617188 29.27121094 501.82617188 28.3125 502.8125 C27.73113281 503.41707031 27.14976562 504.02164063 26.55078125 504.64453125 C25 506 25 506 23 506 C23 506.66 23 507.32 23 508 C22.34 508 21.68 508 21 508 C21 508.66 21 509.32 21 510 C18.8828125 511.9453125 18.8828125 511.9453125 16.125 514.125 C15.22007812 514.84945312 14.31515625 515.57390625 13.3828125 516.3203125 C11 518 11 518 9 518 C9 518.66 9 519.32 9 520 C7.35 520.66 5.7 521.32 4 522 C4 522.66 4 523.32 4 524 C2.55737305 525.22998047 2.55737305 525.22998047 0.51171875 526.6171875 C-0.24705566 527.13539063 -1.00583008 527.65359375 -1.78759766 528.1875 C-2.62081543 528.744375 -3.4540332 529.30125 -4.3125 529.875 C-5.60486572 530.74511719 -5.60486572 530.74511719 -6.92333984 531.6328125 C-9.60895452 533.43202277 -12.30332183 535.2174248 -15 537 C-15.77939941 537.51981445 -16.55879883 538.03962891 -17.36181641 538.57519531 C-50.61115258 560.65488895 -88.72263231 576.9826664 -127.98828125 584.60742188 C-129.92305939 584.98498538 -131.852345 585.39037023 -133.78125 585.796875 C-137.10032121 586.46891834 -140.41483894 587.07711744 -143.75537109 587.62792969 C-145.28096184 587.88081203 -146.80472825 588.14490175 -148.32666016 588.41894531 C-164.28272264 591.20897321 -180.22502272 591.29551806 -196.375 591.3125 C-197.44691589 591.31599457 -198.51883179 591.31948914 -199.62322998 591.3230896 C-225.85180342 591.37044445 -251.25690086 588.42680702 -276.609375 581.63525391 C-278.83922373 581.04272261 -281.07407772 580.47705808 -283.3125 579.91796875 C-331.49813188 567.58818126 -375.78914145 542.15484185 -413.046875 509.55859375 C-414.94781703 507.91161355 -416.89412894 506.31490391 -418.890625 504.78515625 C-419.58671875 504.19605469 -420.2828125 503.60695313 -421 503 C-421 502.34 -421 501.68 -421 501 C-421.66 501 -422.32 501 -423 501 C-423 500.34 -423 499.68 -423 499 C-423.66 499 -424.32 499 -425 499 C-425 498.34 -425 497.68 -425 497 C-426.32 496.34 -427.64 495.68 -429 495 C-429 494.34 -429 493.68 -429 493 C-429.66 493 -430.32 493 -431 493 C-431 492.34 -431 491.68 -431 491 C-431.66 491 -432.32 491 -433 491 C-433 490.34 -433 489.68 -433 489 C-433.66 489 -434.32 489 -435 489 C-435 488.34 -435 487.68 -435 487 C-435.66 487 -436.32 487 -437 487 C-438.47769218 485.36567245 -439.88269319 483.66523632 -441.25 481.9375 C-443.9594861 478.54079368 -446.67800145 475.18686352 -449.5625 471.9375 C-452 469 -452 469 -452 467 C-452.66 467 -453.32 467 -454 467 C-455.7265625 464.8828125 -455.7265625 464.8828125 -457.625 462.125 C-458.57246094 460.76761719 -458.57246094 460.76761719 -459.5390625 459.3828125 C-461 457 -461 457 -461 455 C-461.66 455 -462.32 455 -463 455 C-464.27758789 453.41796875 -464.27758789 453.41796875 -465.72265625 451.1875 C-466.25697266 450.36677002 -466.79128906 449.54604004 -467.34179688 448.70043945 C-467.90962891 447.80929443 -468.47746094 446.91814941 -469.0625 446 C-469.64451172 445.09531982 -470.22652344 444.19063965 -470.82617188 443.25854492 C-475.8752273 435.34051823 -480.5056806 427.24114285 -485 419 C-487.10439573 415.34558982 -487.10439573 415.34558982 -489.22265625 411.69921875 C-490 410 -490 410 -490 407 C-490.66 406.67 -491.32 406.34 -492 406 C-493.01806641 404.14013672 -493.01806641 404.14013672 -494.1015625 401.6796875 C-494.50544189 400.76340576 -494.90932129 399.84712402 -495.32543945 398.90307617 C-495.75429443 397.90381104 -496.18314941 396.9045459 -496.625 395.875 C-497.0686792 394.84544189 -497.5123584 393.81588379 -497.96948242 392.75512695 C-511.68992251 360.40969957 -519.6435209 326.94502535 -523 292 C-523.10803955 290.88963379 -523.10803955 290.88963379 -523.21826172 289.75683594 C-523.66769928 284.83805777 -523.8809325 279.93530161 -524 275 C-524.02723145 273.91541504 -524.05446289 272.83083008 -524.08251953 271.71337891 C-525.44104241 207.62356707 -509.49870431 140.46662496 -473 87 C-472.43667969 86.12730469 -471.87335938 85.25460937 -471.29296875 84.35546875 C-466.94743893 77.66792708 -462.31839339 71.19662103 -457.625 64.75 C-457.0055249 63.89083984 -456.3860498 63.03167969 -455.74780273 62.14648438 C-455.16329346 61.35048828 -454.57878418 60.55449219 -453.9765625 59.734375 C-453.18886475 58.65494629 -453.18886475 58.65494629 -452.38525391 57.55371094 C-451.92812012 57.04098633 -451.47098633 56.52826172 -451 56 C-450.34 56 -449.68 56 -449 56 C-448.7525 55.44828125 -448.505 54.8965625 -448.25 54.328125 C-446.75765526 51.54863293 -444.96327477 49.2185293 -443 46.75 C-442.29875 45.85796875 -441.5975 44.9659375 -440.875 44.046875 C-440.25625 43.37140625 -439.6375 42.6959375 -439 42 C-438.34 42 -437.68 42 -437 42 C-436.61714844 41.13036621 -436.61714844 41.13036621 -436.2265625 40.24316406 C-434.87415223 37.76984688 -433.36267476 36.10397891 -431.375 34.109375 C-430.31539062 33.04589844 -430.31539062 33.04589844 -429.234375 31.9609375 C-428.49703125 31.23132813 -427.7596875 30.50171875 -427 29.75 C-426.26265625 29.00492187 -425.5253125 28.25984375 -424.765625 27.4921875 C-424.05921875 26.78835937 -423.3528125 26.08453125 -422.625 25.359375 C-421.97789062 24.71452148 -421.33078125 24.06966797 -420.6640625 23.40527344 C-419 22 -419 22 -417 22 C-417 21.34 -417 20.68 -417 20 C-415.28667246 18.41466298 -413.50310953 16.90458785 -411.6875 15.4375 C-410.20830078 14.22900391 -410.20830078 14.22900391 -408.69921875 12.99609375 C-406 11 -406 11 -403 10 C-403 9.34 -403 8.68 -403 8 C-401.35 7.34 -399.7 6.68 -398 6 C-398 5.34 -398 4.68 -398 4 C-395.60055315 2.11362309 -393.19630828 0.35643106 -390.6875 -1.375 C-389.92058838 -1.90810791 -389.15367676 -2.44121582 -388.36352539 -2.99047852 C-365.90678857 -18.47341253 -342.42821908 -32.01289876 -317 -42 C-316.1322998 -42.34369629 -315.26459961 -42.68739258 -314.37060547 -43.04150391 C-284.78313671 -54.63387308 -253.65917448 -61.45874447 -222 -64 C-220.76121094 -64.11085937 -219.52242187 -64.22171875 -218.24609375 -64.3359375 C-140.56956595 -70.53665277 -62.33849682 -45.98476129 0 0 Z M-260 -51 C-260.7822998 -50.86400391 -261.56459961 -50.72800781 -262.37060547 -50.58789062 C-278.0298545 -47.79425507 -293.03698516 -42.27351741 -308 -37 C-308.78503906 -36.72430176 -309.57007813 -36.44860352 -310.37890625 -36.16455078 C-336.35124072 -26.87091494 -360.61142558 -12.9607112 -383 3 C-383.71124023 3.50305664 -384.42248047 4.00611328 -385.15527344 4.52441406 C-387.27666221 6.02829155 -389.38984206 7.54291453 -391.5 9.0625 C-392.15371582 9.527771 -392.80743164 9.99304199 -393.48095703 10.47241211 C-395.02500789 11.5983087 -396.51844761 12.79304569 -398 14 C-398 14.66 -398 15.32 -398 16 C-398.55171875 16.2475 -399.1034375 16.495 -399.671875 16.75 C-402.45136707 18.24234474 -404.7814707 20.03672523 -407.25 22 C-408.14203125 22.70125 -409.0340625 23.4025 -409.953125 24.125 C-410.62859375 24.74375 -411.3040625 25.3625 -412 26 C-412 26.66 -412 27.32 -412 28 C-412.5887793 28.26425781 -413.17755859 28.52851563 -413.78417969 28.80078125 C-416.08072584 30.04368944 -417.60833166 31.35006481 -419.453125 33.1875 C-420.071875 33.80367188 -420.690625 34.41984375 -421.328125 35.0546875 C-422.27945313 36.01761719 -422.27945313 36.01761719 -423.25 37 C-423.8996875 37.64195312 -424.549375 38.28390625 -425.21875 38.9453125 C-426.13914062 39.86957031 -426.13914062 39.86957031 -427.078125 40.8125 C-427.91972168 41.65748047 -427.91972168 41.65748047 -428.77832031 42.51953125 C-430.21215792 43.93719109 -430.21215792 43.93719109 -430 46 C-430.66 46 -431.32 46 -432 46 C-432 46.66 -432 47.32 -432 48 C-432.66 48 -433.32 48 -434 48 C-437.63633539 51.47998507 -437.63633539 51.47998507 -439 56 C-439.66 56 -440.32 56 -441 56 C-442.4297735 57.49621525 -442.4297735 57.49621525 -443.86328125 59.47265625 C-444.42080078 60.20806641 -444.97832031 60.94347656 -445.55273438 61.70117188 C-446.42381836 62.8700293 -446.42381836 62.8700293 -447.3125 64.0625 C-447.88162109 64.81466797 -448.45074219 65.56683594 -449.03710938 66.34179688 C-450.70396325 68.55214846 -452.35452102 70.77370463 -454 73 C-454.5057959 73.67659668 -455.0115918 74.35319336 -455.53271484 75.05029297 C-458.12038228 78.19425935 -458.12038228 78.19425935 -459 82 C-459.66 82 -460.32 82 -461 82 C-462.26654126 83.80110064 -463.43569519 85.67083375 -464.5625 87.5625 C-464.91183594 88.14604248 -465.26117188 88.72958496 -465.62109375 89.33081055 C-466.36869344 90.58028955 -467.11355906 91.8314077 -467.85595703 93.08398438 C-468.96864369 94.94748521 -470.10313424 96.79556889 -471.24609375 98.640625 C-480.36200468 113.42826262 -487.53349078 128.89245059 -494 145 C-494.27585937 145.68562012 -494.55171875 146.37124023 -494.8359375 147.07763672 C-503.6513686 169.20895106 -509.70507449 192.33636789 -513.25 215.875 C-513.49484131 217.49547241 -513.49484131 217.49547241 -513.74462891 219.14868164 C-524.0056131 291.17773094 -508.14379296 365.73542878 -471 428 C-470.55124512 428.75925781 -470.10249023 429.51851562 -469.64013672 430.30078125 C-461.2638829 444.40408511 -451.33888571 457.28787007 -441 470 C-440.3090625 470.91394531 -439.618125 471.82789063 -438.90625 472.76953125 C-438.2771875 473.50558594 -437.648125 474.24164062 -437 475 C-436.34 475 -435.68 475 -435 475 C-434.773125 475.53625 -434.54625 476.0725 -434.3125 476.625 C-432.54429911 479.82460161 -430.46329797 482.29037223 -428 485 C-427.34 485 -426.68 485 -426 485 C-426 485.66 -426 486.32 -426 487 C-425.34 487 -424.68 487 -424 487 C-424 487.66 -424 488.32 -424 489 C-423.34 489 -422.68 489 -422 489 C-422 489.66 -422 490.32 -422 491 C-421.34 491 -420.68 491 -420 491 C-420 491.66 -420 492.32 -420 493 C-419.34 493 -418.68 493 -418 493 C-418 493.66 -418 494.32 -418 495 C-416.32040162 496.77671697 -416.32040162 496.77671697 -414.1875 498.5625 C-413.47980469 499.18253906 -412.77210938 499.80257812 -412.04296875 500.44140625 C-409.98726532 502.18424754 -409.98726532 502.18424754 -407 503 C-407 503.66 -407 504.32 -407 505 C-404.97414078 506.74946764 -402.94090314 508.38322422 -400.8125 510 C-399.85790894 510.73476562 -399.85790894 510.73476562 -398.8840332 511.484375 C-397.56274629 512.50092589 -396.23972402 513.5152249 -394.91503906 514.52734375 C-393.18725331 515.85600307 -391.47701969 517.20304354 -389.7734375 518.5625 C-381.22200538 525.31704891 -372.24508959 531.24045407 -363 537 C-362.0112085 537.62624268 -362.0112085 537.62624268 -361.00244141 538.26513672 C-340.46692468 551.2173603 -317.97751408 560.37096223 -295 568 C-294.1534082 568.28568848 -293.30681641 568.57137695 -292.43457031 568.86572266 C-253.96210479 581.70794002 -212.36315479 585.97461772 -172 583 C-170.83090088 582.91709717 -170.83090088 582.91709717 -169.63818359 582.83251953 C-130.85940092 579.90441038 -91.88431601 569.09237312 -57 552 C-55.65373535 551.34523682 -55.65373535 551.34523682 -54.28027344 550.67724609 C-32.96370783 540.2109379 -13.36449569 527.48861271 5.08300781 512.54980469 C6.89607623 511.08401784 8.72255003 509.6371476 10.5546875 508.1953125 C14.36584588 505.19975804 14.36584588 505.19975804 18 502 C18 501.34 18 500.68 18 500 C18.58910156 499.73832031 19.17820312 499.47664062 19.78515625 499.20703125 C22.11785434 497.9357725 23.60354368 496.59769469 25.4375 494.6875 C26.0459375 494.06101562 26.654375 493.43453125 27.28125 492.7890625 C28.13203125 491.90347656 28.13203125 491.90347656 29 491 C34 486 34 486 36.0859375 483.984375 C36.82070313 483.26765625 37.55546875 482.5509375 38.3125 481.8125 C39.35857422 480.80123047 39.35857422 480.80123047 40.42578125 479.76953125 C42.22155697 478.14569097 42.22155697 478.14569097 42 476 C42.66 476 43.32 476 44 476 C46.7700747 473.0209757 49.23194292 469.78678552 51.74560547 466.58984375 C52.90285832 465.12311923 54.077618 463.670253 55.25390625 462.21875 C69.11160444 444.77352589 80.89752275 425.83281982 91 406 C91.37560059 405.26797363 91.75120117 404.53594727 92.13818359 403.78173828 C114.35146098 360.01963957 124.21270673 311.2007457 124.25 262.375 C124.25067474 261.57041351 124.25134949 260.76582703 124.25204468 259.93685913 C124.21214964 229.69604626 119.77985937 199.95438521 111 171 C110.649375 169.79988281 110.29875 168.59976563 109.9375 167.36328125 C107.96763569 160.73807354 105.68062838 154.36649241 103 148 C102.41604654 146.57317031 101.83277729 145.14606049 101.25 143.71875 C92.61655891 122.71667998 82.65601694 101.22980252 69 83 C67.70240394 81.17085857 66.41073041 79.33750135 65.125 77.5 C64.26261719 76.27796875 64.26261719 76.27796875 63.3828125 75.03125 C62 73 62 73 61 71 C60.34 71 59.68 71 59 71 C58.67 69.68 58.34 68.36 58 67 C57.34 67 56.68 67 56 67 C55.731875 66.42765625 55.46375 65.8553125 55.1875 65.265625 C53.95867364 62.92115366 52.57477824 60.87595062 51 58.75 C50.484375 58.04359375 49.96875 57.3371875 49.4375 56.609375 C48.963125 56.07828125 48.48875 55.5471875 48 55 C47.34 55 46.68 55 46 55 C45.731875 54.4225 45.46375 53.845 45.1875 53.25 C43.97070811 50.94449957 42.69666121 48.97943808 41 47 C40.34 47 39.68 47 39 47 C39 46.34 39 45.68 39 45 C38.34 45 37.68 45 37 45 C37 44.34 37 43.68 37 43 C36.34 43 35.68 43 35 43 C35 42.34 35 41.68 35 41 C34.34 41 33.68 41 33 41 C32.79375 40.46375 32.5875 39.9275 32.375 39.375 C30.46749574 36.08021991 27.95180616 33.40636372 25 31 C24.34 31 23.68 31 23 31 C23 30.34 23 29.68 23 29 C22.34 29 21.68 29 21 29 C21 28.34 21 27.68 21 27 C19.49212839 25.62508701 17.91460239 24.32635538 16.3125 23.0625 C12.55907201 20.06840828 8.86459949 17.0411658 5.23852539 13.89453125 C-1.50421185 8.06694536 -8.54559069 2.89343359 -16 -2 C-16.65613281 -2.43892578 -17.31226563 -2.87785156 -17.98828125 -3.33007812 C-89.86870351 -51.2725861 -175.63321043 -66.13489074 -260 -51 Z " fill="#F0F1F1" transform="translate(796,205)"/>
<path d="M0 0 C2.54878157 0.36961642 5.0880698 0.60872043 7.65380859 0.82861328 C11.79837625 1.22691298 15.47443059 2.07858392 19.45458984 3.35595703 C21.46056131 3.95931428 23.46713835 4.56065975 25.47412109 5.16064453 C27.73869627 5.84992047 30.00301255 6.54004745 32.26708984 7.23095703 C33.39179687 7.56998047 34.51650391 7.90900391 35.67529297 8.25830078 C45.27866071 11.19343816 54.39601904 14.64520156 63.32958984 19.23095703 C64.71104815 19.93158061 66.09255908 20.63210047 67.47412109 21.33251953 C68.14523926 21.67444336 68.81635742 22.01636719 69.5078125 22.36865234 C72.33393293 23.80191432 75.17647654 25.20168898 78.01708984 26.60595703 C82.25297616 28.72101077 86.37884316 30.94756126 90.45458984 33.35595703 C90.45458984 34.01595703 90.45458984 34.67595703 90.45458984 35.35595703 C91.32083984 35.54158203 91.32083984 35.54158203 92.20458984 35.73095703 C94.47794751 36.36244527 96.37994274 37.24453894 98.45458984 38.35595703 C98.45458984 39.01595703 98.45458984 39.67595703 98.45458984 40.35595703 C99.12876953 40.57251953 99.80294922 40.78908203 100.49755859 41.01220703 C104.38166533 42.77724364 107.44458453 45.20753364 110.76708984 47.85595703 C111.41226562 48.35482422 112.05744141 48.85369141 112.72216797 49.36767578 C114.34139291 50.64592108 115.90348596 51.99585512 117.45458984 53.35595703 C117.45458984 54.01595703 117.45458984 54.67595703 117.45458984 55.35595703 C119.10458984 56.01595703 120.75458984 56.67595703 122.45458984 57.35595703 C122.45458984 58.01595703 122.45458984 58.67595703 122.45458984 59.35595703 C123.11458984 59.35595703 123.77458984 59.35595703 124.45458984 59.35595703 C128.19588531 62.77657003 131.43890579 66.60683791 134.75537109 70.43408203 C137.50404927 73.54293183 140.47605035 76.4079969 143.45458984 79.29345703 C158.23149312 94.53213854 185.45458984 129.22661081 185.45458984 151.35595703 C186.11458984 151.68595703 186.77458984 152.01595703 187.45458984 152.35595703 C188.15307617 154.06396484 188.15307617 154.06396484 188.78662109 156.30908203 C189.14494019 157.56458862 189.14494019 157.56458862 189.51049805 158.84545898 C189.76017334 159.75642334 190.00984863 160.6673877 190.26708984 161.60595703 C190.52772217 162.53947998 190.78835449 163.47300293 191.05688477 164.43481445 C192.90786053 171.15127648 194.63359173 177.89597992 196.26708984 184.66845703 C196.57706909 185.9460791 196.57706909 185.9460791 196.89331055 187.24951172 C197.80019991 191.10579286 198.57090842 194.89954713 199.02880859 198.83642578 C199.2351058 202.19745137 199.2351058 202.19745137 200.45458984 204.35595703 C200.606865 205.71611276 200.70379794 207.08270457 200.77099609 208.44970703 C200.81321289 209.30161621 200.85542969 210.15352539 200.89892578 211.03125 C201.82246031 233.10830463 201.94564846 254.48356428 198.45458984 276.35595703 C198.33132324 277.18691895 198.20805664 278.01788086 198.08105469 278.87402344 C194.59090968 301.91271829 185.90227942 324.06255256 175.21386719 344.66137695 C174.31829199 346.35066655 174.31829199 346.35066655 174.45458984 348.35595703 C173.79458984 348.35595703 173.13458984 348.35595703 172.45458984 348.35595703 C172.18904297 349.06494141 171.92349609 349.77392578 171.64990234 350.50439453 C168.14925664 358.85560815 162.91350641 366.37666022 157.51318359 373.59814453 C156.0620967 375.54210534 154.64013392 377.50797406 153.23974609 379.48876953 C152.52689453 380.49681641 151.81404297 381.50486328 151.07958984 382.54345703 C150.10892578 383.92597656 150.10892578 383.92597656 149.11865234 385.33642578 C148.29494141 386.33609375 148.29494141 386.33609375 147.45458984 387.35595703 C146.79458984 387.35595703 146.13458984 387.35595703 145.45458984 387.35595703 C145.20580078 387.92185547 144.95701172 388.48775391 144.70068359 389.07080078 C139.99388361 397.70239324 130.77154656 405.7769498 123.45458984 412.35595703 C122.79458984 412.35595703 122.13458984 412.35595703 121.45458984 412.35595703 C121.45458984 413.01595703 121.45458984 413.67595703 121.45458984 414.35595703 C116.98400161 418.35595703 116.98400161 418.35595703 114.45458984 418.35595703 C114.45458984 419.01595703 114.45458984 419.67595703 114.45458984 420.35595703 C113.08789063 421.60180664 113.08789063 421.60180664 111.14990234 423.00830078 C110.43044434 423.53206299 109.71098633 424.0558252 108.96972656 424.59545898 C108.18098145 425.15579834 107.39223633 425.7161377 106.57958984 426.29345703 C105.36360107 427.16200317 105.36360107 427.16200317 104.12304688 428.0480957 C85.42468782 441.24746854 65.94378528 451.34298446 44.60595703 459.52783203 C42.8441131 460.20601798 41.08963361 460.9033079 39.33740234 461.60595703 C20.00643269 469.12682061 -2.90507888 473.01936681 -23.54541016 473.35595703 C-24.67188965 473.3764209 -25.79836914 473.39688477 -26.95898438 473.41796875 C-61.94224903 473.95726994 -96.11842524 469.42196704 -128.54541016 455.35595703 C-129.48900391 454.99759766 -130.43259766 454.63923828 -131.40478516 454.27001953 C-147.2453319 448.01717213 -162.00080636 438.65712841 -176.04541016 429.10595703 C-176.71556152 428.65260986 -177.38571289 428.1992627 -178.07617188 427.73217773 C-179.60661091 426.66276646 -181.08330128 425.51704349 -182.54541016 424.35595703 C-182.54541016 423.69595703 -182.54541016 423.03595703 -182.54541016 422.35595703 C-183.09712891 422.10845703 -183.64884766 421.86095703 -184.21728516 421.60595703 C-186.99677723 420.11361229 -189.32688085 418.3192318 -191.79541016 416.35595703 C-192.68744141 415.65470703 -193.57947266 414.95345703 -194.49853516 414.23095703 C-195.17400391 413.61220703 -195.84947266 412.99345703 -196.54541016 412.35595703 C-196.54541016 411.69595703 -196.54541016 411.03595703 -196.54541016 410.35595703 C-197.10615234 410.12134766 -197.66689453 409.88673828 -198.24462891 409.64501953 C-205.49614656 405.58219979 -215.86112046 395.40882613 -218.54541016 387.35595703 C-219.20541016 387.35595703 -219.86541016 387.35595703 -220.54541016 387.35595703 C-221.84228516 385.92236328 -221.84228516 385.92236328 -223.29541016 383.91845703 C-223.82134766 383.19529297 -224.34728516 382.47212891 -224.88916016 381.72705078 C-227.07072826 378.60390966 -229.17670702 375.43562262 -231.24853516 372.23876953 C-232.54338083 370.23717041 -232.54338083 370.23717041 -234.54541016 368.35595703 C-236.62810566 365.02133653 -238.55248932 361.59547548 -240.49951172 358.18017578 C-241.56291986 356.32541724 -242.64307163 354.48115572 -243.72509766 352.63720703 C-247.84170405 345.5562501 -251.61212072 338.38607606 -254.98291016 330.91845703 C-255.31282959 330.19770996 -255.64274902 329.47696289 -255.98266602 328.734375 C-257.95376064 324.25007032 -259.19509186 319.95008132 -260.0378418 315.12133789 C-260.20533936 314.53876221 -260.37283691 313.95618652 -260.54541016 313.35595703 C-261.20541016 313.02595703 -261.86541016 312.69595703 -262.54541016 312.35595703 C-263.90095759 308.81429553 -264.63866143 305.03311249 -265.54541016 301.35595703 C-265.94497393 299.81294274 -266.34472687 298.26997743 -266.74462891 296.72705078 C-271.54882097 277.81247877 -274.03356897 258.85353528 -274.54541016 239.35595703 C-274.5726416 238.53836914 -274.59987305 237.72078125 -274.62792969 236.87841797 C-275.06967697 222.48134611 -273.66427668 208.5869065 -271.54541016 194.35595703 C-271.35591797 193.05658203 -271.16642578 191.75720703 -270.97119141 190.41845703 C-269.43542066 180.58952424 -266.29819684 171.40520317 -263.17041016 161.98095703 C-262.59033203 160.20978516 -262.59033203 160.20978516 -261.99853516 158.40283203 C-259.83214087 151.87457005 -257.48979388 145.57106522 -254.54541016 139.35595703 C-254.21089844 138.62908691 -253.87638672 137.9022168 -253.53173828 137.15332031 C-252.52506068 134.96625068 -251.50569528 132.7855338 -250.48291016 130.60595703 C-250.14453125 129.87763672 -249.80615234 129.14931641 -249.45751953 128.39892578 C-244.50086918 117.83368654 -244.50086918 117.83368654 -241.54541016 116.35595703 C-241.25150391 115.45619141 -240.95759766 114.55642578 -240.65478516 113.62939453 C-239.47782723 110.1565398 -237.99966507 107.89433271 -235.79541016 104.98095703 C-235.08771484 104.03478516 -234.38001953 103.08861328 -233.65087891 102.11376953 C-232.34204546 100.39941626 -231.03231494 98.685747 -229.72119141 96.97314453 C-229.18880859 96.27447266 -228.65642578 95.57580078 -228.10791016 94.85595703 C-227.63482422 94.24751953 -227.16173828 93.63908203 -226.67431641 93.01220703 C-225.35421014 91.23737597 -225.35421014 91.23737597 -224.54541016 88.35595703 C-223.56892999 87.33297781 -222.56409677 86.33691451 -221.54541016 85.35595703 C-220.88541016 84.53095703 -220.22541016 83.70595703 -219.54541016 82.85595703 C-217.54541016 80.35595703 -217.54541016 80.35595703 -216.11181641 78.93017578 C-213.88295115 76.69019399 -211.94078284 74.23118606 -209.94775391 71.78173828 C-209.48498047 71.31123047 -209.02220703 70.84072266 -208.54541016 70.35595703 C-207.88541016 70.35595703 -207.22541016 70.35595703 -206.54541016 70.35595703 C-206.54541016 69.69595703 -206.54541016 69.03595703 -206.54541016 68.35595703 C-205.88541016 68.35595703 -205.22541016 68.35595703 -204.54541016 68.35595703 C-204.54541016 67.69595703 -204.54541016 67.03595703 -204.54541016 66.35595703 C-203.88541016 66.35595703 -203.22541016 66.35595703 -202.54541016 66.35595703 C-202.54541016 65.69595703 -202.54541016 65.03595703 -202.54541016 64.35595703 C-200.90087891 62.66455078 -200.90087891 62.66455078 -198.73291016 60.79345703 C-198.02521484 60.17341797 -197.31751953 59.55337891 -196.58837891 58.91455078 C-194.54541016 57.35595703 -194.54541016 57.35595703 -191.54541016 56.35595703 C-191.54541016 55.69595703 -191.54541016 55.03595703 -191.54541016 54.35595703 C-190.01588139 52.98113251 -188.42018109 51.67929806 -186.79541016 50.41845703 C-185.91369141 49.72880859 -185.03197266 49.03916016 -184.12353516 48.32861328 C-183.27275391 47.67763672 -182.42197266 47.02666016 -181.54541016 46.35595703 C-180.81837891 45.77716797 -180.09134766 45.19837891 -179.34228516 44.60205078 C-177.54541016 43.35595703 -177.54541016 43.35595703 -175.54541016 43.35595703 C-175.05041016 42.36595703 -175.05041016 42.36595703 -174.54541016 41.35595703 C-172.60212773 39.93069245 -170.61602069 38.56333002 -168.60791016 37.23095703 C-166.985625 36.14427734 -166.985625 36.14427734 -165.33056641 35.03564453 C-162.54541016 33.35595703 -162.54541016 33.35595703 -160.54541016 33.35595703 C-160.05041016 32.36595703 -160.05041016 32.36595703 -159.54541016 31.35595703 C-157.08574618 29.90977916 -154.63362463 28.55095185 -152.10791016 27.23095703 C-151.41375 26.85841797 -150.71958984 26.48587891 -150.00439453 26.10205078 C-144.8089461 23.35595703 -144.8089461 23.35595703 -142.54541016 23.35595703 C-142.21541016 22.69595703 -141.88541016 22.03595703 -141.54541016 21.35595703 C-139.4323614 20.32735194 -137.27813723 19.38268755 -135.10791016 18.48095703 C-134.47409424 18.21702148 -133.84027832 17.95308594 -133.18725586 17.68115234 C-131.90522596 17.14882383 -130.62194449 16.61949909 -129.33740234 16.09326172 C-127.78953457 15.45640059 -126.24878073 14.80229984 -124.70947266 14.14501953 C-119.93411561 12.14147856 -115.36999571 10.72820551 -110.26025391 9.84814453 C-109.69435547 9.68572266 -109.12845703 9.52330078 -108.54541016 9.35595703 C-108.21541016 8.69595703 -107.88541016 8.03595703 -107.54541016 7.35595703 C-104.89306641 6.53955078 -104.89306641 6.53955078 -101.60791016 5.79345703 C-97.45997381 4.90000605 -97.45997381 4.90000605 -93.54541016 3.35595703 C-91.68711509 3.11944675 -89.82831255 2.88631351 -87.96728516 2.67236328 C-82.66776261 1.9800063 -77.40464557 0.95418256 -72.17431641 -0.14013672 C-48.57706229 -4.66323595 -23.60664884 -3.81356171 0 0 Z M-145.54541016 32.35595703 C-146.70427734 32.97083984 -147.86314453 33.58572266 -149.05712891 34.21923828 C-162.73681066 41.75320212 -175.26819263 50.89982513 -187.00634766 61.17626953 C-189.54541016 63.35595703 -189.54541016 63.35595703 -192.54541016 65.35595703 C-192.54541016 66.01595703 -192.54541016 66.67595703 -192.54541016 67.35595703 C-193.20541016 67.35595703 -193.86541016 67.35595703 -194.54541016 67.35595703 C-194.54541016 68.01595703 -194.54541016 68.67595703 -194.54541016 69.35595703 C-195.20541016 69.35595703 -195.86541016 69.35595703 -196.54541016 69.35595703 C-196.54541016 70.01595703 -196.54541016 70.67595703 -196.54541016 71.35595703 C-197.20541016 71.35595703 -197.86541016 71.35595703 -198.54541016 71.35595703 C-198.54541016 72.01595703 -198.54541016 72.67595703 -198.54541016 73.35595703 C-200.03041016 73.85095703 -200.03041016 73.85095703 -201.54541016 74.35595703 C-201.54541016 75.01595703 -201.54541016 75.67595703 -201.54541016 76.35595703 C-202.20541016 76.35595703 -202.86541016 76.35595703 -203.54541016 76.35595703 C-203.54541016 77.01595703 -203.54541016 77.67595703 -203.54541016 78.35595703 C-204.20541016 78.35595703 -204.86541016 78.35595703 -205.54541016 78.35595703 C-206.96247517 79.90484205 -208.30350512 81.52357237 -209.60791016 83.16845703 C-214.42851231 89.2191969 -214.42851231 89.2191969 -216.75244141 91.93798828 C-223.52471417 99.8816812 -229.10294745 108.47223279 -234.54541016 117.35595703 C-234.94791992 118.01225098 -235.35042969 118.66854492 -235.76513672 119.34472656 C-265.64849824 168.71123689 -274.90033305 231.89029933 -261.17236328 287.93066406 C-258.25155579 299.22945754 -254.88169749 310.51523869 -250.54541016 321.35595703 C-250.11744141 322.42587891 -249.68947266 323.49580078 -249.24853516 324.59814453 C-245.55766269 333.50783129 -241.20251801 341.9215235 -236.54541016 350.35595703 C-236.01044922 351.32791016 -235.47548828 352.29986328 -234.92431641 353.30126953 C-233.80530452 355.32373295 -232.68040431 357.34243375 -231.54541016 359.35595703 C-230.88541016 359.35595703 -230.22541016 359.35595703 -229.54541016 359.35595703 C-229.31208984 360.04173828 -229.07876953 360.72751953 -228.83837891 361.43408203 C-227.26529784 364.98896009 -225.14395823 367.98776702 -222.85791016 371.10595703 C-222.41382813 371.71777832 -221.96974609 372.32959961 -221.51220703 372.95996094 C-220.19718544 374.76408327 -218.87298331 376.56105774 -217.54541016 378.35595703 C-216.83771484 379.31759766 -216.13001953 380.27923828 -215.40087891 381.27001953 C-213.07704563 384.40003951 -213.07704563 384.40003951 -210.54541016 387.35595703 C-209.88541016 387.35595703 -209.22541016 387.35595703 -208.54541016 387.35595703 C-208.29017578 387.93571289 -208.03494141 388.51546875 -207.77197266 389.11279297 C-206.41956239 391.58611015 -204.90808492 393.25197812 -202.92041016 395.24658203 C-202.21400391 395.95556641 -201.50759766 396.66455078 -200.77978516 397.39501953 C-200.04244141 398.12462891 -199.30509766 398.85423828 -198.54541016 399.60595703 C-197.80806641 400.35103516 -197.07072266 401.09611328 -196.31103516 401.86376953 C-195.60462891 402.56759766 -194.89822266 403.27142578 -194.17041016 403.99658203 C-193.52330078 404.64143555 -192.87619141 405.28628906 -192.20947266 405.95068359 C-190.6537466 407.57102312 -190.6537466 407.57102312 -188.54541016 407.35595703 C-188.54541016 408.01595703 -188.54541016 408.67595703 -188.54541016 409.35595703 C-186.45568746 411.15135259 -184.36698933 412.82657145 -182.17041016 414.48095703 C-181.56712891 414.94888672 -180.96384766 415.41681641 -180.34228516 415.89892578 C-177.28806075 418.49209942 -177.28806075 418.49209942 -173.54541016 419.35595703 C-173.54541016 420.01595703 -173.54541016 420.67595703 -173.54541016 421.35595703 C-171.9032075 422.72755724 -171.9032075 422.72755724 -169.73291016 424.07861328 C-168.50229858 424.88008789 -168.50229858 424.88008789 -167.24682617 425.69775391 C-166.35535889 426.26558594 -165.4638916 426.83341797 -164.54541016 427.41845703 C-163.63782959 428.00046875 -162.73024902 428.58248047 -161.79516602 429.18212891 C-141.89972564 442.06291334 -141.89972564 442.06291334 -119.54541016 449.35595703 C-119.54541016 450.01595703 -119.54541016 450.67595703 -119.54541016 451.35595703 C-118.85576172 451.53771484 -118.16611328 451.71947266 -117.45556641 451.90673828 C-112.91447885 453.12143248 -108.41924824 454.3601734 -103.98291016 455.91845703 C-99.99807201 457.28713132 -96.01522392 458.12203235 -91.87744141 458.89111328 C-89.54541016 459.35595703 -89.54541016 459.35595703 -86.10791016 460.35595703 C-72.43789908 464.19315312 -57.92664743 465.27712656 -43.79541016 466.04345703 C-42.94986572 466.09187744 -42.10432129 466.14029785 -41.2331543 466.19018555 C-37.10492078 466.38617365 -33.59844555 466.23355643 -29.54541016 465.35595703 C-27.19088144 465.36155639 -24.83631325 465.40794556 -22.48291016 465.48095703 C7.27574858 465.88418147 39.45087111 455.7458759 65.65771484 442.22314453 C67.45458984 441.35595703 67.45458984 441.35595703 70.45458984 440.35595703 C70.45458984 439.69595703 70.45458984 439.03595703 70.45458984 438.35595703 C71.00630859 438.24380859 71.55802734 438.13166016 72.12646484 438.01611328 C74.85524196 437.2423493 77.18231927 436.08778009 79.70458984 434.79345703 C80.59662109 434.33841797 81.48865234 433.88337891 82.40771484 433.41455078 C83.08318359 433.06521484 83.75865234 432.71587891 84.45458984 432.35595703 C84.45458984 431.69595703 84.45458984 431.03595703 84.45458984 430.35595703 C85.44458984 430.35595703 86.43458984 430.35595703 87.45458984 430.35595703 C87.45458984 429.69595703 87.45458984 429.03595703 87.45458984 428.35595703 C88.32341797 428.10845703 89.19224609 427.86095703 90.08740234 427.60595703 C93.67062547 426.27575819 96.25977768 424.6187996 99.32958984 422.35595703 C100.29638672 421.65470703 101.26318359 420.95345703 102.25927734 420.23095703 C102.98373047 419.61220703 103.70818359 418.99345703 104.45458984 418.35595703 C104.45458984 417.69595703 104.45458984 417.03595703 104.45458984 416.35595703 C105.47552734 416.04658203 105.47552734 416.04658203 106.51708984 415.73095703 C110.3709836 413.92700676 113.53246748 411.45492253 116.45458984 408.35595703 C116.45458984 407.69595703 116.45458984 407.03595703 116.45458984 406.35595703 C117.32857422 405.95376953 117.32857422 405.95376953 118.22021484 405.54345703 C120.48245585 404.34114713 122.26035302 403.01769791 124.20458984 401.35595703 C125.12498047 400.58251953 125.12498047 400.58251953 126.06396484 399.79345703 C127.6863536 398.44972451 127.6863536 398.44972451 127.45458984 396.35595703 C128.11458984 396.35595703 128.77458984 396.35595703 129.45458984 396.35595703 C131.26526358 394.64263714 131.26526358 394.64263714 133.07958984 392.48095703 C133.71123047 391.76166016 134.34287109 391.04236328 134.99365234 390.30126953 C136.65476107 388.49488771 136.65476107 388.49488771 136.45458984 386.35595703 C137.11458984 386.35595703 137.77458984 386.35595703 138.45458984 386.35595703 C139.86936566 384.87545322 139.86936566 384.87545322 141.27490234 382.92626953 C141.80986328 382.21341797 142.34482422 381.50056641 142.89599609 380.76611328 C143.45158203 380.01201172 144.00716797 379.25791016 144.57958984 378.48095703 C145.14291016 377.73458984 145.70623047 376.98822266 146.28662109 376.21923828 C149.32317899 372.64478525 149.32317899 372.64478525 150.45458984 368.35595703 C151.11458984 368.35595703 151.77458984 368.35595703 152.45458984 368.35595703 C154.73193994 365.5408571 154.73193994 365.5408571 154.45458984 362.35595703 C155.11458984 362.35595703 155.77458984 362.35595703 156.45458984 362.35595703 C165.40589427 350.08468524 171.99723773 335.45549896 177.45458984 321.35595703 C177.73189941 320.64536133 178.00920898 319.93476562 178.29492188 319.20263672 C181.74389999 310.31382192 184.96331744 301.58106832 186.84912109 292.21533203 C187.45458984 289.35595703 187.45458984 289.35595703 188.43505859 286.05908203 C203.18034318 232.50149663 191.74671006 170.73528026 164.89208984 122.91845703 C159.06585629 112.75440763 153.01261667 102.33871536 145.45458984 93.35595703 C144.79458984 93.35595703 144.13458984 93.35595703 143.45458984 93.35595703 C143.26896484 92.69595703 143.08333984 92.03595703 142.89208984 91.35595703 C140.8465021 87.08690435 137.88274341 83.61431997 134.45458984 80.35595703 C133.79458984 80.35595703 133.13458984 80.35595703 132.45458984 80.35595703 C132.20708984 79.78361328 131.95958984 79.21126953 131.70458984 78.62158203 C130.26142785 76.00585092 128.57242762 74.20822247 126.45458984 72.10595703 C125.75333984 71.39955078 125.05208984 70.69314453 124.32958984 69.96533203 C122.61348217 68.13885304 122.61348217 68.13885304 120.45458984 68.35595703 C120.45458984 67.69595703 120.45458984 67.03595703 120.45458984 66.35595703 C119.79458984 66.35595703 119.13458984 66.35595703 118.45458984 66.35595703 C118.45458984 65.69595703 118.45458984 65.03595703 118.45458984 64.35595703 C116.97032752 62.77403885 116.97032752 62.77403885 115.07958984 61.23095703 C114.45310547 60.69212891 113.82662109 60.15330078 113.18115234 59.59814453 C111.53850557 58.16128556 111.53850557 58.16128556 109.45458984 58.35595703 C109.45458984 57.69595703 109.45458984 57.03595703 109.45458984 56.35595703 C108.13458984 56.02595703 106.81458984 55.69595703 105.45458984 55.35595703 C105.45458984 54.69595703 105.45458984 54.03595703 105.45458984 53.35595703 C101.82135296 50.39360008 101.82135296 50.39360008 97.45458984 49.35595703 C97.45458984 48.69595703 97.45458984 48.03595703 97.45458984 47.35595703 C96.46458984 47.35595703 95.47458984 47.35595703 94.45458984 47.35595703 C94.45458984 46.69595703 94.45458984 46.03595703 94.45458984 45.35595703 C93.46458984 45.35595703 92.47458984 45.35595703 91.45458984 45.35595703 C91.45458984 44.69595703 91.45458984 44.03595703 91.45458984 43.35595703 C64.71918734 23.85376274 29.02967067 11.42290652 -3.54541016 7.35595703 C-4.23908691 7.26717285 -4.93276367 7.17838867 -5.64746094 7.08691406 C-54.08824424 1.09121703 -102.44888588 9.32685012 -145.54541016 32.35595703 Z " fill="#F0F1F1" transform="translate(637.54541015625,233.64404296875)"/>
<path d="M0 0 C0.33 0.66 0.66 1.32 1 2 C1.99 1.649375 2.98 1.29875 4 0.9375 C8.28435344 -0.30774907 11.63072469 0.27178745 16 1 C16.99 1 17.98 1 19 1 C24.66666667 1 30.33333333 1 36 1 C36.33 1.66 36.66 2.32 37 3 C37.969375 2.95875 38.93875 2.9175 39.9375 2.875 C43.65510626 2.875 46.99965022 3.55686917 50.6015625 4.4296875 C53.11945857 5.02840546 55.64468737 5.51892734 58.1875 6 C61.90936197 6.73159845 65.43313512 7.68589189 69 9 C69 9.66 69 10.32 69 11 C70.010625 11.103125 71.02125 11.20625 72.0625 11.3125 C77.15163926 12.20107987 81.27714361 13.95827288 85.6875 16.625 C87.89246556 18.09905662 87.89246556 18.09905662 90.25 18.5 C90.8275 18.665 91.405 18.83 92 19 C93.2077558 22.62326739 92.54311128 23.64146369 91 27 C87.48439895 25.94531969 84.25443979 24.6772882 81 23 C77.73438334 21.32071705 74.50366653 20.11819145 71 19 C69.906875 18.505 68.81375 18.01 67.6875 17.5 C64.16420266 16.0667943 60.90500692 15.22374929 57.19921875 14.46875 C55.21622472 14.04608697 53.26077513 13.49886741 51.3125 12.9375 C47.09905515 11.74501561 43.26220762 10.97475585 38.875 11.0625 C35.88759533 10.99755642 34.58672212 10.33795972 32 9 C31.01 9.33 30.02 9.66 29 10 C27.19667482 9.76182498 25.3937762 9.51975661 23.59375 9.2578125 C18.08625898 8.71038116 12.52833389 8.9367789 7 9 C6.01 9 5.02 9 4 9 C-1.15820589 9.37837892 -1.15820589 9.37837892 -6 11 C-6.99 10.67 -7.98 10.34 -9 10 C-11.34326294 10.63087848 -13.6756398 11.30269194 -16 12 C-17.11375 12.144375 -18.2275 12.28875 -19.375 12.4375 C-24.44902293 13.22484839 -29.37556738 14.65641597 -33.9609375 17.00390625 C-36.24557239 18.11996352 -38.49242953 18.8067905 -40.9375 19.5 C-51.49535514 22.50254304 -61.23226446 27.42419834 -70 34 C-72.80356366 35.63541213 -73.69321112 36 -77 36 C-77.33 36.99 -77.66 37.98 -78 39 C-79.7421875 40.5703125 -79.7421875 40.5703125 -81.875 42.125 C-82.92300781 42.90230469 -82.92300781 42.90230469 -83.9921875 43.6953125 C-86 45 -86 45 -89 46 C-89.28875 46.639375 -89.5775 47.27875 -89.875 47.9375 C-91.39359708 50.72159465 -93.1217721 50.84870884 -96 52 C-97.18330183 53.86644906 -97.18330183 53.86644906 -98 56 C-99.5 58.25 -99.5 58.25 -101 60 C-101.66 60 -102.32 60 -103 60 C-103 60.66 -103 61.32 -103 62 C-103.66 62 -104.32 62 -105 62 C-105.268125 62.763125 -105.53625 63.52625 -105.8125 64.3125 C-106.95134505 66.88988618 -107.81416671 68.26954864 -110 70 C-110.66 70 -111.32 70 -112 70 C-112.26941406 70.55816406 -112.53882813 71.11632812 -112.81640625 71.69140625 C-114.09063799 74.17678895 -115.49085395 76.54850945 -116.9375 78.9375 C-117.44152344 79.77152344 -117.94554687 80.60554688 -118.46484375 81.46484375 C-119.51052614 83.19168312 -120.56561602 84.91285271 -121.62890625 86.62890625 C-123.11947557 89.02318691 -123.11947557 89.02318691 -124 92 C-124.66 92 -125.32 92 -126 92 C-126.12375 92.556875 -126.2475 93.11375 -126.375 93.6875 C-127.80415313 98.97536658 -130.33967628 103.67772351 -132.87890625 108.5 C-134.00927585 111.02068482 -134.5269712 113.28918112 -135 116 C-135.309375 116.7425 -135.61875 117.485 -135.9375 118.25 C-137.15440592 121.39963886 -137.79536566 124.50826773 -138.4375 127.81640625 C-139 130 -139 130 -140.0625 132.08984375 C-141.22029625 134.09421752 -141.22029625 134.09421752 -141 137 C-141.31172103 138.56695481 -141.6477226 140.12916178 -142 141.6875 C-142.79736875 145.5405196 -143.118415 149.01901144 -143.0078125 152.9375 C-142.98247616 159.62629267 -144.14145091 166.37690699 -145 173 C-144.34 173.33 -143.68 173.66 -143 174 C-143 178 -143 178 -143.0703125 179.97265625 C-143.2896309 188.35375234 -141.69609209 196.0914632 -139 204 C-138.855625 205.093125 -138.71125 206.18625 -138.5625 207.3125 C-137.99307207 211.0454164 -136.94659007 214.24005507 -135.69140625 217.78125 C-135.03633111 219.88341204 -134.68351146 221.8172074 -134.4375 224 C-134.293125 224.99 -134.14875 225.98 -134 227 C-133.34 227.33 -132.68 227.66 -132 228 C-131.28125 229.65234375 -131.28125 229.65234375 -130.5 231.9375 C-128.42520499 237.36510065 -125.74906961 242.3658376 -122.9375 247.4375 C-122.28394531 248.6275061 -122.28394531 248.6275061 -121.6171875 249.84155273 C-121.19566406 250.59380127 -120.77414062 251.3460498 -120.33984375 252.12109375 C-119.77317993 253.13320923 -119.77317993 253.13320923 -119.19506836 254.16577148 C-117.9676578 256.04963983 -116.60321153 257.43331533 -115 259 C-113 262 -113 262 -113 265 C-112.34 265 -111.68 265 -111 265 C-106.95016606 268.63446636 -104.20337997 272.29239506 -102 277.25 C-101.05720054 279.35137474 -101.05720054 279.35137474 -98 280 C-94.4592371 282.78740909 -91.01434671 285.63784406 -88 289 C-88 289.66 -88 290.32 -88 291 C-85.66785852 292.20628008 -83.50357861 293.1654738 -81 294 C-80.67 294.66 -80.34 295.32 -80 296 C-78.33927151 296.68132451 -76.672233 297.34742127 -75 298 C-74.34 298.66 -73.68 299.32 -73 300 C-63.36832696 306.79326252 -53.06550416 312.85043594 -42 317 C-41.34 316.67 -40.68 316.34 -40 316 C-39.67 316.66 -39.34 317.32 -39 318 C-36.2984375 318.91827391 -36.2984375 318.91827391 -33.125 319.625 C-31.52011719 320.01558594 -31.52011719 320.01558594 -29.8828125 320.4140625 C-27.00031122 321.09958974 -27.00031122 321.09958974 -24 321 C-24 321.66 -24 322.32 -24 323 C-23.21496094 323.04898437 -22.42992187 323.09796875 -21.62109375 323.1484375 C-15.79849789 323.56280629 -10.59233687 324.24554137 -5 326 C-1.60375388 326.56604102 1.55889679 327 5 327 C8.66666667 327 12.33333333 327 16 327 C18.67356157 326.71372955 21.33365575 326.34968449 24 326 C24.33 326.99 24.66 327.98 25 329 C26.24076302 329.11542197 26.24076302 329.11542197 27.5625 327.5 C28.036875 327.005 28.51125 326.51 29 326 C29.99 326.33 30.98 326.66 32 327 C34.26427415 326.69907414 34.26427415 326.69907414 37 326 C38.52056008 325.66542238 40.04141666 325.33219061 41.5625 325 C43.75133694 324.51443479 45.92471819 324.02026277 48.08984375 323.4375 C50 323 50 323 53 323 C54.96523471 322.27941394 56.92933338 321.55491191 58.87890625 320.79296875 C61.86643074 319.67608574 64.93241396 318.86818473 68 318 C69.66933058 317.3400321 71.3364521 316.67441131 73 316 C73.62261719 315.855625 74.24523437 315.71125 74.88671875 315.5625 C77.14366437 314.96176032 79.04107857 314.11238437 81.125 313.0625 C81.80820312 312.72347656 82.49140625 312.38445312 83.1953125 312.03515625 C85.16372364 311.01063924 85.16372364 311.01063924 87 309 C88.41779819 308.31199184 89.85875104 307.67087562 91.3125 307.0625 C94.72411995 305.59802649 97.82305425 303.92542167 101 302 C101.66 302 102.32 302 103 302 C103 301.34 103 300.68 103 300 C104.97946592 298.63636792 106.9819245 297.30581356 109 296 C109.7734375 295.1646875 109.7734375 295.1646875 110.5625 294.3125 C112.53931728 292.50757987 114.39661158 292.35180925 117 292 C117 291.34 117 290.68 117 290 C117.66 290 118.32 290 119 290 C119.33 289.01 119.66 288.02 120 287 C125.46511628 282 125.46511628 282 128 282 C128 281.34 128 280.68 128 280 C129.58960328 278.19363264 130.83852297 277.08073852 133 276 C133.12375 275.360625 133.2475 274.72125 133.375 274.0625 C134 272 134 272 136.0625 270.75 C136.701875 270.5025 137.34125 270.255 138 270 C138 269.34 138 268.68 138 268 C138.66 268 139.32 268 140 268 C140.28875 267.4225 140.5775 266.845 140.875 266.25 C141.24625 265.5075 141.6175 264.765 142 264 C142.28875 263.34 142.5775 262.68 142.875 262 C144.23527958 259.58172519 146.04671674 257.95328326 148 256 C148 255.34 148 254.68 148 254 C148.66 253.67 149.32 253.34 150 253 C150.72159424 251.35636866 151.39351421 249.68949614 152 248 C152.66 248 153.32 248 154 248 C154.92481222 245.72353916 155.84099543 243.44972891 156.66015625 241.1328125 C157.89421155 237.66666811 159.20433833 234.52043143 161.125 231.375 C162.96510374 228.06281327 163.48424248 225.69626219 164 222 C164.66 221.34 165.32 220.68 166 220 C166.80664504 217.49940039 167 215.66053211 167 213 C167.66 212.01 168.32 211.02 169 210 C169.37309899 208.34178227 169.70700977 206.67422986 170 205 C170.33 204.01 170.66 203.02 171 202 C170.67 201.34 170.34 200.68 170 200 C170.66 200 171.32 200 172 200 C171.79375 199.4225 171.5875 198.845 171.375 198.25 C170.90266871 195.41601225 171.7359994 194.52800121 173 192 C173.16670273 188.95826106 173.16670273 188.95826106 173 186 C173 182.94004731 173.38181155 180.02126242 173.78125 176.9921875 C174.05002612 174.87843186 174.05002612 174.87843186 174 172.25 C174 170 174 170 174.5625 167.875 C175.22123618 165.79116759 175.22123618 165.79116759 174 163 C174 162.01 174 161.02 174 160 C173.59781927 154.95134832 173.13006016 149.94401319 172 145 C171.40075494 142.20352306 171 139.87126759 171 137 C170.1120953 131.51199331 168.89249883 126.23220264 167 121 C166.76152344 120.24332031 166.52304687 119.48664063 166.27734375 118.70703125 C165.89255859 117.49080078 165.89255859 117.49080078 165.5 116.25 C165.2628125 115.49203125 165.025625 114.7340625 164.78125 113.953125 C164.07283404 111.81022117 164.07283404 111.81022117 162 110 C162 108.68 162 107.36 162 106 C161.19838209 103.32854463 161.19838209 103.32854463 160 101 C159.34 100.67 158.68 100.34 158 100 C157.25390625 98.328125 157.25390625 98.328125 156.5625 96.25 C155.37964333 92.88247947 153.87930632 90.04268642 152 87 C152 86.34 152 85.68 152 85 C151.34 85 150.68 85 150 85 C149.566875 83.906875 149.13375 82.81375 148.6875 81.6875 C147.46078341 78.83467072 146.34274083 77.07242458 144 75 C140.66505659 71.15198838 137.82781075 67.24171613 135 63 C133.50014391 61.33289654 133.50014391 61.33289654 132 60 C130.3125 58.4375 130.3125 58.4375 129 57 C129 56.34 129 55.68 129 55 C128.1646875 54.6596875 128.1646875 54.6596875 127.3125 54.3125 C124.37158957 52.64333462 122.3864325 50.3864325 120 48 C119.0925 47.46375 118.185 46.9275 117.25 46.375 C115 45 115 45 114 42 C112.17131715 40.90807722 112.17131715 40.90807722 110 40 C108.57168265 39.18679742 107.15475553 38.35325892 105.75 37.5 C104.69039062 36.86578125 104.69039062 36.86578125 103.609375 36.21875 C103.07828125 35.8165625 102.5471875 35.414375 102 35 C102 34.34 102 33.68 102 33 C101.278125 32.71125 100.55625 32.4225 99.8125 32.125 C97.20833333 31.08333333 94.60416667 30.04166667 92 29 C92 27.68 92 26.36 92 25 C94.5 23.25 94.5 23.25 97 22 C97.53625 22.4125 98.0725 22.825 98.625 23.25 C101.35704857 25.26308842 104.16734781 27.13165494 107 29 C107.99 29.66 108.98 30.32 110 31 C110.65500488 31.31670654 111.31000977 31.63341309 111.98486328 31.9597168 C114.01374568 33.007096 115.52629686 34.14646907 117.2421875 35.64453125 C117.83386719 36.15693359 118.42554688 36.66933594 119.03515625 37.19726562 C119.64230469 37.73029297 120.24945312 38.26332031 120.875 38.8125 C122.08039367 39.86106288 123.28611986 40.90924364 124.4921875 41.95703125 C125.07758301 42.46790283 125.66297852 42.97877441 126.26611328 43.50512695 C127.92398725 44.93446549 129.60495587 46.33001162 131.296875 47.71875 C133.95247564 49.95989274 136.00450628 52.16025894 138 55 C138 55.66 138 56.32 138 57 C138.99 57.33 139.98 57.66 141 58 C143.36506843 60.00121175 143.9893322 60.96799661 145 64 C145.66 64.33 146.32 64.66 147 65 C147 65.66 147 66.32 147 67 C147.66 67.33 148.32 67.66 149 68 C149.85752159 69.2622265 150.66412261 70.55953566 151.4375 71.875 C152.67616548 73.97956642 153.77172283 75.773497 155.5078125 77.49609375 C157.24804049 79.24998845 158.26491083 81.01532662 159.4375 83.1875 C159.86804688 83.98414063 160.29859375 84.78078125 160.7421875 85.6015625 C162.20573868 88.39230915 163.63613353 91.19595762 165.02734375 94.0234375 C166.04283546 96.08704715 167.08417313 98.13657177 168.125 100.1875 C170.10396687 104.16089442 171.72568008 108.03073629 172.9375 112.3125 C173.70565711 114.97845703 174.53103205 117.38386576 175.5625 119.9375 C176.63981131 122.71696319 177.25049621 125.22346402 177.5625 128.1875 C177.95450604 131.60355266 178.73067382 133.86899543 180 137 C180 138.66666667 180 140.33333333 180 142 C180.63903117 143.67745682 181.30341637 145.34561387 182 147 C182 150.41099168 181.50854594 153.63088314 181 157 C181.66 157.33 182.32 157.66 183 158 C182.67 158.33 182.34 158.66 182 159 C182.30791692 160.671549 182.64386903 162.33805547 183 164 C183 164.99 183 165.98 183 167 C183.0309375 168.175625 183.0309375 168.175625 183.0625 169.375 C183 172 183 172 182.53125 174.25 C181.92693357 177.37822623 181.6675761 180.44775868 181.4375 183.625 C181.35371094 184.75164062 181.26992188 185.87828125 181.18359375 187.0390625 C181.0605684 189.02317342 181 191.01207862 181 193 C180.34 193.33 179.68 193.66 179 194 C179.309375 194.8971875 179.309375 194.8971875 179.625 195.8125 C180 198 180 198 178 201 C178.66 201.33 179.32 201.66 180 202 C179.34 202.33 178.68 202.66 178 203 C178 203.99 178 204.98 178 206 C177.36529515 208.34222942 176.69418988 210.67470662 176 213 C175.69320313 214.13179687 175.38640625 215.26359375 175.0703125 216.4296875 C172.43162703 226.0467147 169.0993196 234.37607908 164.05078125 242.95703125 C163.00940507 244.9817143 162.54802686 246.80343706 162 249 C161.34 249.99 160.68 250.98 160 252 C159.34 252 158.68 252 158 252 C157.67 253.98 157.34 255.96 157 258 C156.34 258 155.68 258 155 258 C154.59587891 258.86625 154.59587891 258.86625 154.18359375 259.75 C152.9833874 262.03158039 151.63074953 263.95688611 150.0625 266 C149.55847656 266.66 149.05445313 267.32 148.53515625 268 C148.02855469 268.66 147.52195312 269.32 147 270 C146.22462891 271.11375 146.22462891 271.11375 145.43359375 272.25 C144.72396484 273.11625 144.72396484 273.11625 144 274 C143.34 274 142.68 274 142 274 C141.5978125 274.86625 141.5978125 274.86625 141.1875 275.75 C139.97070811 278.05550043 138.69666121 280.02056192 137 282 C136.34 282 135.68 282 135 282 C134.34 283.32 133.68 284.64 133 286 C132.34 286 131.68 286 131 286 C130.34 287.32 129.68 288.64 129 290 C128.34 290 127.68 290 127 290 C126.67 290.66 126.34 291.32 126 292 C124.92330101 292.98909356 123.81442611 293.94353645 122.6875 294.875 C120.71233111 296.52695944 118.88822344 298.11922833 117.125 300 C113.75824538 303.16871023 109.89664056 305.53132089 106 308 C104.66195312 308.85078125 104.66195312 308.85078125 103.296875 309.71875 C96.39033019 314 96.39033019 314 93 314 C92.67 314.99 92.34 315.98 92 317 C90.02416285 317.73519522 88.01822402 318.39072482 86 319 C85.071875 319.474375 84.14375 319.94875 83.1875 320.4375 C79.97595109 322.01178868 76.82842522 323.0943647 73.4296875 324.17578125 C70.85618 325.04878781 68.37928015 326.07076656 65.875 327.125 C61.89699501 328.7481736 58.28541109 329.51485912 54 330 C51.66501142 330.66084583 49.33183607 331.32811503 47 332 C33.34782609 335 33.34782609 335 27 335 C24.76431747 335.022912 22.52864106 335.0464242 20.29296875 335.0703125 C18.28377727 335.08416217 16.27458483 335.09796182 14.26538086 335.10986328 C12.88546693 335.11991553 11.50557427 335.1335594 10.12573242 335.15087891 C8.11907245 335.1753533 6.11225378 335.18546083 4.10546875 335.1953125 C2.31338989 335.21102295 2.31338989 335.21102295 0.48510742 335.22705078 C-3.25604229 334.98331914 -6.43153544 334.11774757 -10 333 C-11.68172765 332.78268424 -13.37036485 332.61005757 -15.0625 332.5 C-18.9939536 332.16149116 -22.28991213 331.40158875 -26 330 C-29.4285485 329.00260407 -32.86020948 328.0369258 -36.3125 327.125 C-41.0003347 325.69481314 -45.47666401 323.87858416 -50 322 C-51.11375 321.54625 -52.2275 321.0925 -53.375 320.625 C-54.57125 320.08875 -55.7675 319.5525 -57 319 C-58.25490234 318.43925781 -58.25490234 318.43925781 -59.53515625 317.8671875 C-68.10932768 313.82821038 -75.68858167 308.62508237 -83.38110352 303.14160156 C-84.90281773 302.06853028 -86.45071071 301.03285953 -88 300 C-88 299.34 -88 298.68 -88 298 C-89.2065625 297.5978125 -89.2065625 297.5978125 -90.4375 297.1875 C-91.283125 296.795625 -92.12875 296.40375 -93 296 C-93.495 294.515 -93.495 294.515 -94 293 C-94.99 292.67 -95.98 292.34 -97 292 C-98.48961975 290.51038025 -99.96685401 289.00835486 -101.4375 287.5 C-103.93367462 284.91133079 -103.93367462 284.91133079 -107 283 C-107 282.34 -107 281.68 -107 281 C-107.66 280.67 -108.32 280.34 -109 280 C-110.24188629 278.53521104 -111.48256024 277.06878064 -112.68359375 275.5703125 C-113.96927508 273.98061277 -113.96927508 273.98061277 -115.4453125 272.60546875 C-118.7862213 269.15543478 -121.29431435 264.95303156 -124 261 C-124.721875 259.96875 -125.44375 258.9375 -126.1875 257.875 C-132 248.65517241 -132 248.65517241 -132 245 C-132.66 244.67 -133.32 244.34 -134 244 C-135.05226728 242.02699884 -136.04788888 240.02323613 -137 238 C-137.33128906 237.37351562 -137.66257812 236.74703125 -138.00390625 236.1015625 C-139.08128568 233.82850315 -139.76241197 231.60942599 -140.4375 229.1875 C-141.32570798 226.11258709 -142.27861969 223.21542731 -143.625 220.3125 C-145.07885181 216.81003882 -145.52310435 213.74703728 -146 210 C-146.309375 209.071875 -146.61875 208.14375 -146.9375 207.1875 C-148.62723439 202.11829682 -150.00420104 196.78108726 -149.99609375 191.4140625 C-150.00261696 187.38272086 -151.41725453 183.65111218 -152.75 179.875 C-153.10761577 177.19288172 -152.13403815 175.40149256 -151 173 C-151.66 172.67 -152.32 172.34 -153 172 C-152.835 171.401875 -152.67 170.80375 -152.5 170.1875 C-151.91605526 167.63274175 -151.99606722 165.26262259 -152.03515625 162.65234375 C-152.20016349 146.26948209 -152.20016349 146.26948209 -149.9609375 142.03515625 C-148.75744715 139.48630067 -148.86632128 137.67389816 -149 134.875 C-149.125 132.2421875 -149.125 132.2421875 -149 130 C-148.01 129.01 -148.01 129.01 -147 128 C-146.35648647 125.97270696 -146.35648647 125.97270696 -145.9375 123.6875 C-145.77121094 122.88570313 -145.60492188 122.08390625 -145.43359375 121.2578125 C-145.10175846 119.5298774 -144.79524458 117.7970619 -144.5 116.0625 C-144 114 -144 114 -142 112 C-142 111.01 -142 110.02 -142 109 C-141.01 108.505 -141.01 108.505 -140 108 C-139.43941523 106.26566343 -139.43941523 106.26566343 -139 104 C-138.40206327 101.64811553 -137.74118205 99.31074405 -137 97 C-136.01 96.505 -136.01 96.505 -135 96 C-134.23648712 94.05106223 -134.23648712 94.05106223 -133.625 91.75 C-132.34715943 87.70032617 -130.77567406 85.2515039 -128 82 C-125.47731586 78.04411998 -122.98724043 74.04395334 -120.9453125 69.81640625 C-119.70352939 67.4303354 -117.89494788 65.89494788 -116 64 C-114.76487921 61.86690808 -114.76487921 61.86690808 -114 60 C-113.01 60 -112.02 60 -111 60 C-110.67 58.68 -110.34 57.36 -110 56 C-109.01 56 -108.02 56 -107 56 C-106.6596875 54.9171875 -106.6596875 54.9171875 -106.3125 53.8125 C-104.73664872 50.43567583 -102.79123384 48.44232961 -100 46 C-99.34 46 -98.68 46 -98 46 C-98 45.34 -98 44.68 -98 44 C-96.609375 42.8515625 -96.609375 42.8515625 -94.75 41.625 C-92.4909827 40.08868642 -90.73276012 38.72512469 -88.8125 36.75 C-86.85444081 34.85946009 -85.65889314 34.37984188 -83 34 C-83 33.34 -83 32.68 -83 32 C-81.02678947 30.6273318 -79.02456848 29.29572383 -77 28 C-76.34 27.34 -75.68 26.68 -75 26 C-73.68 26 -72.36 26 -71 26 C-70.67 25.34 -70.34 24.68 -70 24 C-65.06364524 20.35650006 -59.89834427 18.09493006 -54.1875 15.9375 C-51.84718821 15.094782 -51.84718821 15.094782 -50 13 C-49.01 13 -48.02 13 -47 13 C-45.63875 12.319375 -45.63875 12.319375 -44.25 11.625 C-40.84663556 9.92331778 -37.67428583 8.97980956 -34 8 C-33.16597656 7.72800781 -32.33195313 7.45601563 -31.47265625 7.17578125 C-30.59480469 6.89089844 -29.71695313 6.60601562 -28.8125 6.3125 C-27.99394531 6.04050781 -27.17539062 5.76851563 -26.33203125 5.48828125 C-23.79396557 4.95686046 -22.43705303 5.22243918 -20 6 C-19.34 6 -18.68 6 -18 6 C-17.34 5.34 -16.68 4.68 -16 4 C-13.66371161 3.62276444 -11.35695314 3.494845 -8.99609375 3.34375 C-8.33738281 3.2303125 -7.67867187 3.116875 -7 3 C-6.67 2.34 -6.34 1.68 -6 1 C-5.67 1.33 -5.34 1.66 -5 2 C-3.33382885 2.04063832 -1.66611905 2.042721 0 2 C0 1.34 0 0.68 0 0 Z " fill="#F3F4F4" transform="translate(585,300)"/>
<path d="M0 0 C1.09731445 0.07831055 1.09731445 0.07831055 2.21679688 0.15820312 C3.99918622 0.28634876 5.7809257 0.4234816 7.5625 0.5625 C7.42191524 3.02123768 7.27527001 5.47935175 7.125 7.9375 C7.08568359 8.63617187 7.04636719 9.33484375 7.00585938 10.0546875 C6.67578125 15.3359375 6.67578125 15.3359375 5.5625 17.5625 C3.49609375 17.9765625 3.49609375 17.9765625 1 18.1875 C0.17371094 18.26226563 -0.65257812 18.33703125 -1.50390625 18.4140625 C-2.46103516 18.48753906 -2.46103516 18.48753906 -3.4375 18.5625 C-3.7675 19.5525 -4.0975 20.5425 -4.4375 21.5625 C0.8425 21.5625 6.1225 21.5625 11.5625 21.5625 C11.500625 19.70625 11.43875 17.85 11.375 15.9375 C11.38652365 11.04571147 11.55406499 7.60832639 14.5625 3.5625 C18.99680963 -0.4560931 24.84406536 -0.34292029 30.5625 -0.4375 C34.5803886 -0.23799745 38.56571289 0.10911228 42.5625 0.5625 C42.42191524 3.02123768 42.27527001 5.47935175 42.125 7.9375 C42.08568359 8.63617187 42.04636719 9.33484375 42.00585938 10.0546875 C41.67578125 15.3359375 41.67578125 15.3359375 40.5625 17.5625 C38.49609375 17.9765625 38.49609375 17.9765625 36 18.1875 C35.17371094 18.26226563 34.34742188 18.33703125 33.49609375 18.4140625 C32.53896484 18.48753906 32.53896484 18.48753906 31.5625 18.5625 C31.0675 20.0475 31.0675 20.0475 30.5625 21.5625 C33.8625 21.5625 37.1625 21.5625 40.5625 21.5625 C40.2325 26.5125 39.9025 31.4625 39.5625 36.5625 C36.5925 36.5625 33.6225 36.5625 30.5625 36.5625 C30.5625 50.0925 30.5625 63.6225 30.5625 77.5625 C24.2925 77.5625 18.0225 77.5625 11.5625 77.5625 C11.5625 64.0325 11.5625 50.5025 11.5625 36.5625 C6.2825 36.5625 1.0025 36.5625 -4.4375 36.5625 C-4.4375 50.0925 -4.4375 63.6225 -4.4375 77.5625 C-10.7075 77.5625 -16.9775 77.5625 -23.4375 77.5625 C-23.4375 64.0325 -23.4375 50.5025 -23.4375 36.5625 C-25.4175 36.5625 -27.3975 36.5625 -29.4375 36.5625 C-29.46435412 34.25006208 -29.48382841 31.9375373 -29.5 29.625 C-29.51160156 28.33722656 -29.52320313 27.04945313 -29.53515625 25.72265625 C-29.4375 22.5625 -29.4375 22.5625 -28.4375 21.5625 C-26.77132885 21.52186168 -25.10361905 21.519779 -23.4375 21.5625 C-23.47230469 20.76585937 -23.50710938 19.96921875 -23.54296875 19.1484375 C-23.82477339 8.1177987 -23.82477339 8.1177987 -20.4375 3.5625 C-14.51310641 -1.20992817 -7.17504195 -0.57111496 0 0 Z " fill="#02AEB6" transform="translate(706.4375,853.4375)"/>
<path d="M0 0 C1.25159912 0.00523682 2.50319824 0.01047363 3.79272461 0.01586914 C4.78942421 0.01799156 4.78942421 0.01799156 5.80625916 0.02015686 C7.93590735 0.02577021 10.06545175 0.03832485 12.19506836 0.05102539 C13.63582205 0.05603868 15.07657739 0.06060188 16.51733398 0.06469727 C20.05577938 0.07574394 23.59416375 0.09301747 27.13256836 0.11352539 C30.34816102 14.76920733 33.18883252 29.487296 35.89550781 44.2442627 C36.26122521 46.23686198 36.62873207 48.22913367 36.99804688 50.22106934 C37.52379318 53.06182586 38.04214775 55.90383338 38.55834961 58.74633789 C38.79706535 60.02950394 38.79706535 60.02950394 39.04060364 61.33859253 C39.18479233 62.14233307 39.32898102 62.94607361 39.47753906 63.77416992 C39.60457718 64.47011261 39.7316153 65.1660553 39.86250305 65.88308716 C40.19245716 68.60814009 40.13256836 71.36856944 40.13256836 74.11352539 C33.86256836 74.11352539 27.59256836 74.11352539 21.13256836 74.11352539 C19.13256836 66.11352539 19.13256836 66.11352539 19.13256836 62.11352539 C14.18256836 62.11352539 9.23256836 62.11352539 4.13256836 62.11352539 C3.47256836 66.07352539 2.81256836 70.03352539 2.13256836 74.11352539 C-4.13743164 74.11352539 -10.40743164 74.11352539 -16.86743164 74.11352539 C-14.05618781 57.51637434 -11.14838317 40.93726811 -8.15942383 24.37121582 C-7.79737751 22.36210335 -7.43670568 20.35274273 -7.07739258 18.34313965 C-6.56861739 15.50025286 -6.05467514 12.65834831 -5.53930664 9.81665039 C-5.3853241 8.95128662 -5.23134155 8.08592285 -5.07269287 7.19433594 C-3.78465824 0.1498396 -3.78465824 0.1498396 0 0 Z " fill="#02AEB6" transform="translate(294.867431640625,856.886474609375)"/>
<path d="M0 0 C6.27 0 12.54 0 19 0 C19.495 20.295 19.495 20.295 20 41 C22.64 34.07 25.28 27.14 28 20 C34.93 20 41.86 20 49 20 C45.67818575 29.96544276 45.67818575 29.96544276 43.60546875 33.15625 C40.23192291 39.01230531 37.32549453 44.3445978 38.59960938 51.24951172 C40.71619921 57.96650379 43.63001333 64.29369167 46.84155273 70.55249023 C48 73 48 73 49 77 C41.74 77 34.48 77 27 77 C24.69 70.4 22.38 63.8 20 57 C19.67 63.6 19.34 70.2 19 77 C12.73 77 6.46 77 0 77 C0 51.59 0 26.18 0 0 Z " fill="#02AEB6" transform="translate(524,854)"/>
<path d="M0 0 C5.40502266 4.44441437 7.44115812 10.64786053 8.6484375 17.35546875 C8.92878725 20.29980863 8.98291007 23.2115437 8.9609375 26.16796875 C8.95356567 27.34601074 8.95356567 27.34601074 8.94604492 28.54785156 C8.79522808 36.0685849 7.9957687 43.45970053 3.5859375 49.79296875 C-3.22406931 55.73361299 -10.41369865 56.98930512 -19.296875 56.67578125 C-24.82213524 56.09640613 -28.68251407 54.68312091 -33.1015625 51.16796875 C-41.20687992 41.03632197 -41.09739225 29.78882221 -40.3515625 17.35546875 C-39.31490026 9.7564492 -36.08858536 4.43101669 -30.3515625 -0.64453125 C-21.86110989 -5.40746808 -8.35726547 -4.8838872 0 0 Z " fill="#02AEB6" transform="translate(664.3515625,875.64453125)"/>
<path d="M0 0 C3.37117688 2.56209443 4.66989162 4.00967486 6 8 C6.08738898 9.6415845 6.11766621 11.28651622 6.11352539 12.93041992 C6.11344986 13.93123093 6.11337433 14.93204193 6.11329651 15.96318054 C6.10813522 17.04138565 6.10297394 18.11959076 6.09765625 19.23046875 C6.0962413 20.33602615 6.09482635 21.44158356 6.09336853 22.5806427 C6.08776514 26.11628917 6.07521204 29.65187262 6.0625 33.1875 C6.05748544 35.58268138 6.05292246 37.97786375 6.04882812 40.37304688 C6.0377946 46.24872225 6.02052767 52.12435043 6 58 C-0.6 58 -7.2 58 -14 58 C-14 44.8 -14 31.6 -14 18 C-16.31 18.33 -18.62 18.66 -21 19 C-21.80984194 23.95152495 -22.1178734 28.64952275 -22.09765625 33.68359375 C-22.09553383 34.73414696 -22.09553383 34.73414696 -22.09336853 35.80592346 C-22.08782477 38.01649466 -22.07528326 40.22696004 -22.0625 42.4375 C-22.05747771 43.94726415 -22.05291609 45.45702991 -22.04882812 46.96679688 C-22.03872981 50.64460363 -22.01914421 54.32218504 -22 58 C-28.6 58 -35.2 58 -42 58 C-42 39.19 -42 20.38 -42 1 C-36.06 1 -30.12 1 -24 1 C-23.01 2.485 -23.01 2.485 -22 4 C-20.39125 3.0409375 -20.39125 3.0409375 -18.75 2.0625 C-12.6636641 -1.56589255 -6.85832799 -1.50375192 0 0 Z " fill="#02AEB6" transform="translate(510,873)"/>
<path d="M0 0 C3.97192565 5.14013907 4.37125979 9.96752586 4.3203125 16.3359375 C4.3174826 17.03772125 4.31465271 17.739505 4.31173706 18.46255493 C4.30062512 20.68355028 4.27553834 22.90412845 4.25 25.125 C4.23995854 26.63931705 4.23083473 28.15364049 4.22265625 29.66796875 C4.20071554 33.36211258 4.16624875 37.05601551 4.125 40.75 C5.445 40.75 6.765 40.75 8.125 40.75 C7.98430804 42.87534659 7.83729079 45.00027529 7.6875 47.125 C7.60628906 48.30835938 7.52507813 49.49171875 7.44140625 50.7109375 C7.125 53.75 7.125 53.75 6.125 55.75 C4.22989301 55.83160748 2.33375496 55.88946459 0.4375 55.9375 C-1.14611328 55.98970703 -1.14611328 55.98970703 -2.76171875 56.04296875 C-7.59176421 55.58844753 -10.67892535 53.28250356 -13.875 49.75 C-13.875 50.41 -13.875 51.07 -13.875 51.75 C-19.71957088 55.1504776 -24.09631745 56.74353603 -30.875 55.75 C-35.03521204 54.49408693 -37.08757328 52.92687888 -39.25 49.25 C-41.96623966 43.09015943 -41.86293447 36.60981031 -39.6875 30.3125 C-34.92412325 23.57807081 -28.49440818 21.78620293 -20.671875 20.34375 C-19.07769423 20.11045525 -17.47672648 19.9241007 -15.875 19.75 C-16.37 17.275 -16.37 17.275 -16.875 14.75 C-23.77348166 14.48467378 -30.08192992 15.51489635 -36.875 16.75 C-37.865 11.14 -38.855 5.53 -39.875 -0.25 C-9.59055162 -7.50564909 -9.59055162 -7.50564909 0 0 Z " fill="#02AEB6" transform="translate(885.875,876.25)"/>
<path d="M0 0 C6.93 0 13.86 0 21 0 C21.33 18.81 21.66 37.62 22 57 C27.61 57 33.22 57 39 57 C39.0728152 62.97084672 38.98670381 68.07977716 38 74 C25.79 74 13.58 74 1 74 C0.15228789 69.76143947 -0.12134333 66.37480119 -0.11352539 62.09838867 C-0.11367142 61.42466217 -0.11381744 60.75093567 -0.1139679 60.05679321 C-0.11327472 57.84381826 -0.10551036 55.63092889 -0.09765625 53.41796875 C-0.09578995 51.87811835 -0.09436705 50.33826735 -0.09336853 48.79841614 C-0.08956002 44.75589341 -0.07974402 40.71340691 -0.06866455 36.67089844 C-0.05841455 32.54167165 -0.05386323 28.41243898 -0.04882812 24.28320312 C-0.0381202 16.18878365 -0.02053695 8.09440051 0 0 Z " fill="#02AEB6" transform="translate(398,857)"/>
<path d="M0 0 C-0.14100857 2.27113803 -0.28796755 4.54190725 -0.4375 6.8125 C-0.51871094 8.07707031 -0.59992187 9.34164062 -0.68359375 10.64453125 C-1 14 -1 14 -2 17 C-2.75925781 16.855625 -3.51851562 16.71125 -4.30078125 16.5625 C-5.29464844 16.376875 -6.28851562 16.19125 -7.3125 16 C-8.29863281 15.814375 -9.28476562 15.62875 -10.30078125 15.4375 C-13.03781805 14.92000204 -13.03781805 14.92000204 -16 15 C-16.79967527 17.81990753 -17.12822838 20.32986872 -17.1328125 23.2578125 C-17.13410156 24.04800781 -17.13539063 24.83820312 -17.13671875 25.65234375 C-17.13091797 26.87630859 -17.13091797 26.87630859 -17.125 28.125 C-17.12886719 28.94871094 -17.13273438 29.77242187 -17.13671875 30.62109375 C-17.25554581 34.94619163 -17.25554581 34.94619163 -16 39 C-11.42537741 40.19811544 -7.61967708 39.83154187 -3 39 C-2.66048381 40.56116819 -2.32867456 42.12401338 -2 43.6875 C-1.814375 44.55761719 -1.62875 45.42773438 -1.4375 46.32421875 C-1.01027953 48.93712964 -0.92383799 51.35813038 -1 54 C-8.51175741 57.11598826 -15.80482637 58.59624112 -23.74609375 56.15625 C-29.91090416 53.44483264 -33.33720047 50.17443908 -36 44 C-39.85445745 33.72144679 -39.45742736 20.00529833 -35 10 C-31.8632106 4.26724695 -27.93915769 0.31962182 -21.9375 -2.375 C-14.53305015 -3.5503095 -6.87663173 -3.11876978 0 0 Z " fill="#02AEB6" transform="translate(815,875)"/>
<path d="M0 0 C6.27 0 12.54 0 19 0 C19.33 20.13 19.66 40.26 20 61 C20.99 61 21.98 61 23 61 C22.67 66.61 22.34 72.22 22 78 C7.22062469 78.67178979 7.22062469 78.67178979 2 74 C-0.0314965 69.95240538 -0.24348765 66.59387095 -0.22705078 62.09838867 C-0.22734283 61.42466217 -0.22763489 60.75093567 -0.22793579 60.05679321 C-0.22654938 57.84371786 -0.21102111 55.63098484 -0.1953125 53.41796875 C-0.19157991 51.87811975 -0.1887341 50.33826837 -0.18673706 48.79841614 C-0.17911994 44.75584292 -0.15948808 40.71341461 -0.1373291 36.67089844 C-0.11682918 32.5416866 -0.10772649 28.41245124 -0.09765625 24.28320312 C-0.07624024 16.18872835 -0.04107389 8.09439892 0 0 Z " fill="#02AEB6" transform="translate(899,854)"/>
<path d="M0 0 C6.27 0 12.54 0 19 0 C19.33 20.13 19.66 40.26 20 61 C20.99 61 21.98 61 23 61 C22.67 66.61 22.34 72.22 22 78 C7.22062469 78.67178979 7.22062469 78.67178979 2 74 C-0.0314965 69.95240538 -0.24348765 66.59387095 -0.22705078 62.09838867 C-0.22734283 61.42466217 -0.22763489 60.75093567 -0.22793579 60.05679321 C-0.22654938 57.84371786 -0.21102111 55.63098484 -0.1953125 53.41796875 C-0.19157991 51.87811975 -0.1887341 50.33826837 -0.18673706 48.79841614 C-0.17911994 44.75584292 -0.15948808 40.71341461 -0.1373291 36.67089844 C-0.11682918 32.5416866 -0.10772649 28.41245124 -0.09765625 24.28320312 C-0.07624024 16.18872835 -0.04107389 8.09439892 0 0 Z " fill="#02AEB6" transform="translate(369,854)"/>
<path d="M0 0 C6.27 0 12.54 0 19 0 C19.33 20.13 19.66 40.26 20 61 C20.99 61 21.98 61 23 61 C22.67 66.61 22.34 72.22 22 78 C7.22062469 78.67178979 7.22062469 78.67178979 2 74 C-0.0314965 69.95240538 -0.24348765 66.59387095 -0.22705078 62.09838867 C-0.22734283 61.42466217 -0.22763489 60.75093567 -0.22793579 60.05679321 C-0.22654938 57.84371786 -0.21102111 55.63098484 -0.1953125 53.41796875 C-0.19157991 51.87811975 -0.1887341 50.33826837 -0.18673706 48.79841614 C-0.17911994 44.75584292 -0.15948808 40.71341461 -0.1373291 36.67089844 C-0.11682918 32.5416866 -0.10772649 28.41245124 -0.09765625 24.28320312 C-0.07624024 16.18872835 -0.04107389 8.09439892 0 0 Z " fill="#02AEB6" transform="translate(341,854)"/>
<path d="M0 0 C1.64574566 -0.02688151 3.29161413 -0.04634123 4.9375 -0.0625 C5.85402344 -0.07410156 6.77054688 -0.08570313 7.71484375 -0.09765625 C10 0 10 0 11 1 C11.23287008 2.68183948 11.41264166 4.3712416 11.5625 6.0625 C11.64628906 6.98160156 11.73007812 7.90070312 11.81640625 8.84765625 C11.87699219 9.55792969 11.93757812 10.26820313 12 11 C13.65376711 9.34623289 13.63471208 7.19051636 14.0625 4.9375 C14.23910156 4.01839844 14.41570313 3.09929688 14.59765625 2.15234375 C14.73042969 1.44207031 14.86320313 0.73179687 15 0 C18.3 0 21.6 0 25 0 C25.19916016 1.06541016 25.19916016 1.06541016 25.40234375 2.15234375 C25.57894531 3.07144531 25.75554688 3.99054687 25.9375 4.9375 C26.11152344 5.85402344 26.28554688 6.77054688 26.46484375 7.71484375 C26.77714988 9.95289844 26.77714988 9.95289844 28 11 C28.09087891 9.93458984 28.09087891 9.93458984 28.18359375 8.84765625 C28.26738281 7.92855469 28.35117187 7.00945313 28.4375 6.0625 C28.51871094 5.14597656 28.59992187 4.22945312 28.68359375 3.28515625 C29 1 29 1 30 0 C31.68608966 -0.07205511 33.37500659 -0.08386068 35.0625 -0.0625 C35.98160156 -0.05347656 36.90070312 -0.04445313 37.84765625 -0.03515625 C38.55792969 -0.02355469 39.26820313 -0.01195312 40 0 C38.09785933 24.06116208 38.09785933 24.06116208 36 35 C31.38 35 26.76 35 22 35 C21.34 30.71 20.68 26.42 20 22 C19.01 26.29 18.02 30.58 17 35 C6.94140625 35.09765625 6.94140625 35.09765625 4 35 C2.4845248 33.4845248 2.69904592 31.99691651 2.5 29.88671875 C2.4175 29.05076172 2.335 28.21480469 2.25 27.35351562 C2.1675 26.47373047 2.085 25.59394531 2 24.6875 C1.83603087 22.96198112 1.66945401 21.23670763 1.5 19.51171875 C1.4278125 18.74303467 1.355625 17.97435059 1.28125 17.18237305 C1.00750108 15.05820498 0.52043485 13.07451484 0 11 C-0.06688591 9.08438746 -0.08531719 7.16664408 -0.0625 5.25 C-0.05347656 4.26515625 -0.04445313 3.2803125 -0.03515625 2.265625 C-0.02355469 1.51796875 -0.01195312 0.7703125 0 0 Z " fill="#84D7DB" transform="translate(848,1005)"/>
<path d="M0 0 C1.64574566 -0.02688151 3.29161413 -0.04634123 4.9375 -0.0625 C5.85402344 -0.07410156 6.77054688 -0.08570313 7.71484375 -0.09765625 C10 0 10 0 11 1 C11.23287008 2.68183948 11.41264166 4.3712416 11.5625 6.0625 C11.64628906 6.98160156 11.73007812 7.90070312 11.81640625 8.84765625 C11.87699219 9.55792969 11.93757812 10.26820313 12 11 C13.65376711 9.34623289 13.63471208 7.19051636 14.0625 4.9375 C14.23910156 4.01839844 14.41570313 3.09929688 14.59765625 2.15234375 C14.73042969 1.44207031 14.86320313 0.73179687 15 0 C18.3 0 21.6 0 25 0 C25.19916016 1.06541016 25.19916016 1.06541016 25.40234375 2.15234375 C25.57894531 3.07144531 25.75554688 3.99054687 25.9375 4.9375 C26.11152344 5.85402344 26.28554688 6.77054688 26.46484375 7.71484375 C26.77714988 9.95289844 26.77714988 9.95289844 28 11 C28.09087891 9.93458984 28.09087891 9.93458984 28.18359375 8.84765625 C28.26738281 7.92855469 28.35117187 7.00945313 28.4375 6.0625 C28.51871094 5.14597656 28.59992187 4.22945312 28.68359375 3.28515625 C29 1 29 1 30 0 C31.68608966 -0.07205511 33.37500659 -0.08386068 35.0625 -0.0625 C35.98160156 -0.05347656 36.90070312 -0.04445313 37.84765625 -0.03515625 C38.55792969 -0.02355469 39.26820313 -0.01195312 40 0 C38.09785933 24.06116208 38.09785933 24.06116208 36 35 C31.38 35 26.76 35 22 35 C21.34 30.71 20.68 26.42 20 22 C19.01 26.29 18.02 30.58 17 35 C6.94140625 35.09765625 6.94140625 35.09765625 4 35 C2.4845248 33.4845248 2.69904592 31.99691651 2.5 29.88671875 C2.4175 29.05076172 2.335 28.21480469 2.25 27.35351562 C2.1675 26.47373047 2.085 25.59394531 2 24.6875 C1.83603087 22.96198112 1.66945401 21.23670763 1.5 19.51171875 C1.4278125 18.74303467 1.355625 17.97435059 1.28125 17.18237305 C1.00750108 15.05820498 0.52043485 13.07451484 0 11 C-0.06688591 9.08438746 -0.08531719 7.16664408 -0.0625 5.25 C-0.05347656 4.26515625 -0.04445313 3.2803125 -0.03515625 2.265625 C-0.02355469 1.51796875 -0.01195312 0.7703125 0 0 Z " fill="#84D7DB" transform="translate(589,1005)"/>
<path d="M0 0 C6.6 0 13.2 0 20 0 C20 18.81 20 37.62 20 57 C13.4 57 6.8 57 0 57 C0 38.19 0 19.38 0 0 Z " fill="#02AEB6" transform="translate(819,874)"/>
<path d="M0 0 C6.6 0 13.2 0 20 0 C20 18.81 20 37.62 20 57 C13.4 57 6.8 57 0 57 C0 38.19 0 19.38 0 0 Z " fill="#02AEB6" transform="translate(750,874)"/>
<path d="M0 0 C6.6 0 13.2 0 20 0 C20 18.81 20 37.62 20 57 C13.4 57 6.8 57 0 57 C0 38.19 0 19.38 0 0 Z " fill="#02AEB6" transform="translate(440,874)"/>
<path d="M0 0 C3.96 0 7.92 0 12 0 C12.02505615 1.11560303 12.0501123 2.23120605 12.07592773 3.38061523 C12.16983421 7.5049259 12.27009514 11.6290615 12.37231445 15.75317383 C12.415727 17.5408927 12.45739729 19.32865474 12.49731445 21.11645508 C12.5548646 23.68063391 12.61860203 26.24459412 12.68359375 28.80859375 C12.70030624 29.6127623 12.71701874 30.41693085 12.73423767 31.24546814 C12.49220696 34.92669998 12.49220696 34.92669998 14 38 C14.1328125 39.8125 14.1328125 39.8125 14.125 42 C14.12886719 43.0828125 14.12886719 43.0828125 14.1328125 44.1875 C14 46 14 46 13 47 C9.38235839 47.20871009 6.68161667 47.28532791 3.3125 45.875 C2.549375 45.58625 1.78625 45.2975 1 45 C-0.98330173 45.86649466 -0.98330173 45.86649466 -3 47 C-6.91442057 47.5105766 -8.71423887 47.14837597 -12.25 45.3125 C-15.59344524 42.5009665 -16.75752495 40.38648032 -17.20263672 36.00561523 C-17.30509427 33.68757697 -17.32197019 31.38269678 -17.3125 29.0625 C-17.32861328 28.27681641 -17.34472656 27.49113281 -17.36132812 26.68164062 C-17.36623439 20.8186579 -16.15348287 16.94329894 -12.63671875 12.13671875 C-10.31624159 10.52512244 -8.60268409 10.70379153 -5.8125 10.8125 C-3.4303125 10.9053125 -3.4303125 10.9053125 -1 11 C-0.67 7.37 -0.34 3.74 0 0 Z " fill="#82D6DA" transform="translate(558,994)"/>
<path d="M0 0 C3.96 0 7.92 0 12 0 C12.02505615 1.11560303 12.0501123 2.23120605 12.07592773 3.38061523 C12.16983421 7.5049259 12.27009514 11.6290615 12.37231445 15.75317383 C12.415727 17.5408927 12.45739729 19.32865474 12.49731445 21.11645508 C12.5548646 23.68063391 12.61860203 26.24459412 12.68359375 28.80859375 C12.70030624 29.6127623 12.71701874 30.41693085 12.73423767 31.24546814 C12.49220696 34.92669998 12.49220696 34.92669998 14 38 C14.1328125 39.8125 14.1328125 39.8125 14.125 42 C14.12886719 43.0828125 14.12886719 43.0828125 14.1328125 44.1875 C14 46 14 46 13 47 C9.38235839 47.20871009 6.68161667 47.28532791 3.3125 45.875 C2.549375 45.58625 1.78625 45.2975 1 45 C-0.98330173 45.86649466 -0.98330173 45.86649466 -3 47 C-6.91442057 47.5105766 -8.71423887 47.14837597 -12.25 45.3125 C-15.59344524 42.5009665 -16.75752495 40.38648032 -17.20263672 36.00561523 C-17.30509427 33.68757697 -17.32197019 31.38269678 -17.3125 29.0625 C-17.32861328 28.27681641 -17.34472656 27.49113281 -17.36132812 26.68164062 C-17.36623439 20.8186579 -16.15348287 16.94329894 -12.63671875 12.13671875 C-10.31624159 10.52512244 -8.60268409 10.70379153 -5.8125 10.8125 C-3.4303125 10.9053125 -3.4303125 10.9053125 -1 11 C-0.67 7.37 -0.34 3.74 0 0 Z " fill="#82D6DA" transform="translate(437,994)"/>
<path d="M0 0 C3.96 0 7.92 0 12 0 C12 4.62 12 9.24 12 14 C12.66 14 13.32 14 14 14 C14 13.34 14 12.68 14 12 C16.45382134 10.77308933 18.19984103 10.79824069 20.9375 10.75 C22.25041016 10.71132813 22.25041016 10.71132813 23.58984375 10.671875 C26 11 26 11 27.75390625 12.265625 C30.43131021 15.99216844 30.11789386 20.06334986 30.09765625 24.515625 C30.09443359 25.76601563 30.09121094 27.01640625 30.08789062 28.3046875 C30.07951172 29.60664062 30.07113281 30.90859375 30.0625 32.25 C30.05798828 33.56742188 30.05347656 34.88484375 30.04882812 36.2421875 C30.03704326 39.49481104 30.0191079 42.74741124 30 46 C25.71 46 21.42 46 17 46 C17 38.08 17 30.16 17 22 C15.35 22 13.7 22 12 22 C12 29.92 12 37.84 12 46 C8.04 46 4.08 46 0 46 C0 30.82 0 15.64 0 0 Z " fill="#82D6DA" transform="translate(632,994)"/>
<path d="M0 0 C3.96 0 7.92 0 12 0 C12.83378093 3.33512374 13.11814364 5.62444232 13.09765625 8.984375 C13.09443359 9.91894531 13.09121094 10.85351562 13.08789062 11.81640625 C13.07951172 12.78449219 13.07113281 13.75257813 13.0625 14.75 C13.05798828 15.73355469 13.05347656 16.71710937 13.04882812 17.73046875 C13.03706483 20.15370791 13.02062684 22.57682273 13 25 C13.99 24.67 14.98 24.34 16 24 C16.02505615 23.30849854 16.0501123 22.61699707 16.07592773 21.90454102 C16.19152161 18.79032134 16.31441242 15.67643211 16.4375 12.5625 C16.47681641 11.47388672 16.51613281 10.38527344 16.55664062 9.26367188 C16.59853516 8.22919922 16.64042969 7.19472656 16.68359375 6.12890625 C16.72025146 5.17056885 16.75690918 4.21223145 16.79467773 3.22485352 C17 1 17 1 18 0 C19.83115883 -0.09851171 21.66619933 -0.12972629 23.5 -0.125 C24.5003125 -0.12757813 25.500625 -0.13015625 26.53125 -0.1328125 C29 0 29 0 30 1 C30.08847743 3.52094076 30.11527301 6.01430893 30.09765625 8.53515625 C30.0962413 9.28840683 30.09482635 10.04165741 30.09336853 10.81773376 C30.08775376 13.2326956 30.07519883 15.64756601 30.0625 18.0625 C30.0574869 19.69596221 30.05292366 21.32942586 30.04882812 22.96289062 C30.03777954 26.97529585 30.02050506 30.98763241 30 35 C26.04 35 22.08 35 18 35 C18 34.34 18 33.68 18 33 C17.13375 33.495 16.2675 33.99 15.375 34.5 C11.15430848 36.3758629 8.14779264 36.71593088 3.75 35.25 C1.51918315 33.65655939 0.98424111 32.56892784 0 30 C-0.22705078 26.79199219 -0.22705078 26.79199219 -0.1953125 23.046875 C-0.1924826 22.38665344 -0.18965271 21.72643188 -0.18673706 21.04620361 C-0.17558415 18.94728103 -0.15048946 16.84879258 -0.125 14.75 C-0.11496384 13.32292285 -0.1058391 11.89583898 -0.09765625 10.46875 C-0.07566111 6.97902672 -0.04116536 3.48955577 0 0 Z " fill="#86D8DB" transform="translate(800,1005)"/>
<path d="M0 0 C4.29 0 8.58 0 13 0 C13.99 5.61 14.98 11.22 16 17 C17.20713238 12.77503666 18.30610534 8.83245074 19.125 4.5625 C19.558125 2.3040625 19.558125 2.3040625 20 0 C23.96 0 27.92 0 32 0 C30.52392477 7.60637808 28.85343646 15.14932665 27.0625 22.6875 C26.81048828 23.77611328 26.55847656 24.86472656 26.29882812 25.98632812 C22.55982234 41.71692792 22.55982234 41.71692792 18 45 C14.71858388 46.06922548 11.68470012 46.10338929 8.25 46.0625 C7.26515625 46.05347656 6.2803125 46.04445313 5.265625 46.03515625 C4.51796875 46.02355469 3.7703125 46.01195312 3 46 C2.67 42.7 2.34 39.4 2 36 C3.98 36 5.96 36 8 36 C5.94835338 25.76359294 3.79702072 15.6764368 0.734375 5.6875 C0 3 0 3 0 0 Z " fill="#85D7DB" transform="translate(733,1005)"/>
<path d="M0 0 C3.07767889 2.3674453 3.97763914 4.27733721 5.4375 7.875 C5.72242869 10.62093041 5.85903306 13.07997517 5.8125 15.8125 C5.82410156 16.48990234 5.83570313 17.16730469 5.84765625 17.86523438 C5.81825008 22.97700622 4.77428284 26.43009326 2.4375 30.875 C-0.125 32.75 -0.125 32.75 -2.5625 33.875 C-3.5525 34.37 -3.5525 34.37 -4.5625 34.875 C-10.21532017 35.4628933 -14.76181464 35.18975894 -19.5625 31.875 C-23.9705967 26.52231115 -24.87173833 19.4188112 -24.375 12.6875 C-23.8199404 8.57878297 -22.93524123 5.34937109 -20.5625 1.875 C-14.39512934 -2.63482253 -7.08206469 -2.23644148 0 0 Z " fill="#83D7DB" transform="translate(790.5625,1006.125)"/>
<path d="M0 0 C3.63 0 7.26 0 11 0 C11.66 0.66 12.32 1.32 13 2 C13.99 1.34 14.98 0.68 16 0 C18.375 -0.30078125 18.375 -0.30078125 21 -0.3125 C21.86625 -0.32925781 22.7325 -0.34601562 23.625 -0.36328125 C26 0 26 0 27.75 1.26953125 C30.43653074 4.98869725 30.11788281 9.06578146 30.09765625 13.515625 C30.09443359 14.76601563 30.09121094 16.01640625 30.08789062 17.3046875 C30.07951172 18.60664062 30.07113281 19.90859375 30.0625 21.25 C30.05798828 22.56742188 30.05347656 23.88484375 30.04882812 25.2421875 C30.03704326 28.49481104 30.0191079 31.74741124 30 35 C25.71 35 21.42 35 17 35 C17 27.08 17 19.16 17 11 C15.35 11 13.7 11 12 11 C12 18.92 12 26.84 12 35 C8.04 35 4.08 35 0 35 C0 23.45 0 11.9 0 0 Z " fill="#83D7DB" transform="translate(922,1005)"/>
<path d="M0 0 C3.63 0 7.26 0 11 0 C11.66 0.66 12.32 1.32 13 2 C13.99 1.34 14.98 0.68 16 0 C18.375 -0.30078125 18.375 -0.30078125 21 -0.3125 C21.86625 -0.32925781 22.7325 -0.34601562 23.625 -0.36328125 C26 0 26 0 27.75 1.26953125 C30.43653074 4.98869725 30.11788281 9.06578146 30.09765625 13.515625 C30.09443359 14.76601563 30.09121094 16.01640625 30.08789062 17.3046875 C30.07951172 18.60664062 30.07113281 19.90859375 30.0625 21.25 C30.05798828 22.56742188 30.05347656 23.88484375 30.04882812 25.2421875 C30.03704326 28.49481104 30.0191079 31.74741124 30 35 C25.71 35 21.42 35 17 35 C17 27.08 17 19.16 17 11 C15.35 11 13.7 11 12 11 C12 18.92 12 26.84 12 35 C8.04 35 4.08 35 0 35 C0 23.45 0 11.9 0 0 Z " fill="#83D7DB" transform="translate(507,1005)"/>
<path d="M0 0 C3.63 0 7.26 0 11 0 C11.66 0.66 12.32 1.32 13 2 C13.99 1.34 14.98 0.68 16 0 C18.375 -0.30078125 18.375 -0.30078125 21 -0.3125 C21.86625 -0.32925781 22.7325 -0.34601562 23.625 -0.36328125 C26 0 26 0 27.75 1.26953125 C30.43653074 4.98869725 30.11788281 9.06578146 30.09765625 13.515625 C30.09443359 14.76601563 30.09121094 16.01640625 30.08789062 17.3046875 C30.07951172 18.60664062 30.07113281 19.90859375 30.0625 21.25 C30.05798828 22.56742188 30.05347656 23.88484375 30.04882812 25.2421875 C30.03704326 28.49481104 30.0191079 31.74741124 30 35 C25.71 35 21.42 35 17 35 C17 27.08 17 19.16 17 11 C15.35 11 13.7 11 12 11 C12 18.92 12 26.84 12 35 C8.04 35 4.08 35 0 35 C0 23.45 0 11.9 0 0 Z " fill="#83D7DB" transform="translate(386,1005)"/>
<path d="M0 0 C1.78083984 -0.02513672 1.78083984 -0.02513672 3.59765625 -0.05078125 C7.19906196 0.3409506 9.06659079 1.14746571 11.9375 3.3125 C13.1638757 5.76525141 13.05165314 7.3630781 13.03515625 10.1015625 C13.03193359 11.04257812 13.02871094 11.98359375 13.02539062 12.953125 C13.01701172 13.93796875 13.00863281 14.9228125 13 15.9375 C12.99548828 16.93007813 12.99097656 17.92265625 12.98632812 18.9453125 C12.97452145 21.4011016 12.958054 23.85677104 12.9375 26.3125 C13.5975 26.3125 14.2575 26.3125 14.9375 26.3125 C14.96439216 27.79156892 14.98384621 29.27077483 15 30.75 C15.01160156 31.57371094 15.02320313 32.39742187 15.03515625 33.24609375 C14.9375 35.3125 14.9375 35.3125 13.9375 36.3125 C10.31985839 36.52121009 7.61911667 36.59782791 4.25 35.1875 C3.486875 34.89875 2.72375 34.61 1.9375 34.3125 C-0.04580173 35.17899466 -0.04580173 35.17899466 -2.0625 36.3125 C-5 36.75 -5 36.75 -8.0625 36.3125 C-10.875 33.875 -10.875 33.875 -13.0625 31.3125 C-13.3925 30.9825 -13.7225 30.6525 -14.0625 30.3125 C-14.7275694 25.71402012 -14.71889609 22.34085387 -12.1875 18.375 C-8.00025909 15.611421 -3.9820628 14.95252079 0.9375 14.3125 C0.9375 13.3225 0.9375 12.3325 0.9375 11.3125 C-5.0025 11.8075 -5.0025 11.8075 -11.0625 12.3125 C-12.746489 8.1025275 -13.30309853 6.52297434 -13.0625 2.3125 C-8.58001879 0.59478583 -4.79407268 0.01564986 0 0 Z " fill="#83D7DB" transform="translate(904.0625,1004.6875)"/>
<path d="M0 0 C1.78083984 -0.02513672 1.78083984 -0.02513672 3.59765625 -0.05078125 C7.19906196 0.3409506 9.06659079 1.14746571 11.9375 3.3125 C13.1638757 5.76525141 13.05165314 7.3630781 13.03515625 10.1015625 C13.03193359 11.04257812 13.02871094 11.98359375 13.02539062 12.953125 C13.01701172 13.93796875 13.00863281 14.9228125 13 15.9375 C12.99548828 16.93007813 12.99097656 17.92265625 12.98632812 18.9453125 C12.97452145 21.4011016 12.958054 23.85677104 12.9375 26.3125 C13.5975 26.3125 14.2575 26.3125 14.9375 26.3125 C14.96439216 27.79156892 14.98384621 29.27077483 15 30.75 C15.01160156 31.57371094 15.02320313 32.39742187 15.03515625 33.24609375 C14.9375 35.3125 14.9375 35.3125 13.9375 36.3125 C10.31985839 36.52121009 7.61911667 36.59782791 4.25 35.1875 C3.486875 34.89875 2.72375 34.61 1.9375 34.3125 C-0.04580173 35.17899466 -0.04580173 35.17899466 -2.0625 36.3125 C-5 36.75 -5 36.75 -8.0625 36.3125 C-10.875 33.875 -10.875 33.875 -13.0625 31.3125 C-13.3925 30.9825 -13.7225 30.6525 -14.0625 30.3125 C-14.7275694 25.71402012 -14.71889609 22.34085387 -12.1875 18.375 C-8.00025909 15.611421 -3.9820628 14.95252079 0.9375 14.3125 C0.9375 13.3225 0.9375 12.3325 0.9375 11.3125 C-5.0025 11.8075 -5.0025 11.8075 -11.0625 12.3125 C-12.746489 8.1025275 -13.30309853 6.52297434 -13.0625 2.3125 C-8.58001879 0.59478583 -4.79407268 0.01564986 0 0 Z " fill="#83D7DB" transform="translate(679.0625,1004.6875)"/>
<path d="M0 0 C1.78083984 -0.02513672 1.78083984 -0.02513672 3.59765625 -0.05078125 C7.19906196 0.3409506 9.06659079 1.14746571 11.9375 3.3125 C13.1638757 5.76525141 13.05165314 7.3630781 13.03515625 10.1015625 C13.03193359 11.04257812 13.02871094 11.98359375 13.02539062 12.953125 C13.01701172 13.93796875 13.00863281 14.9228125 13 15.9375 C12.99548828 16.93007813 12.99097656 17.92265625 12.98632812 18.9453125 C12.97452145 21.4011016 12.958054 23.85677104 12.9375 26.3125 C13.5975 26.3125 14.2575 26.3125 14.9375 26.3125 C14.96439216 27.79156892 14.98384621 29.27077483 15 30.75 C15.01160156 31.57371094 15.02320313 32.39742187 15.03515625 33.24609375 C14.9375 35.3125 14.9375 35.3125 13.9375 36.3125 C10.31985839 36.52121009 7.61911667 36.59782791 4.25 35.1875 C3.486875 34.89875 2.72375 34.61 1.9375 34.3125 C-0.04580173 35.17899466 -0.04580173 35.17899466 -2.0625 36.3125 C-5 36.75 -5 36.75 -8.0625 36.3125 C-10.875 33.875 -10.875 33.875 -13.0625 31.3125 C-13.3925 30.9825 -13.7225 30.6525 -14.0625 30.3125 C-14.7275694 25.71402012 -14.71889609 22.34085387 -12.1875 18.375 C-8.00025909 15.611421 -3.9820628 14.95252079 0.9375 14.3125 C0.9375 13.3225 0.9375 12.3325 0.9375 11.3125 C-5.0025 11.8075 -5.0025 11.8075 -11.0625 12.3125 C-12.746489 8.1025275 -13.30309853 6.52297434 -13.0625 2.3125 C-8.58001879 0.59478583 -4.79407268 0.01564986 0 0 Z " fill="#83D7DB" transform="translate(368.0625,1004.6875)"/>
<path d="M0 0 C1.03769531 -0.01417969 2.07539063 -0.02835938 3.14453125 -0.04296875 C7.22112709 0.26578498 10.11698384 1.0405184 12.9375 4.0625 C15.63775282 8.65292979 15.35308536 12.97156108 15.1875 18.1875 C14.8575 19.1775 14.5275 20.1675 14.1875 21.1875 C8.9075 21.1875 3.6275 21.1875 -1.8125 21.1875 C-1.4825 22.8375 -1.1525 24.4875 -0.8125 26.1875 C5.6225 25.6925 5.6225 25.6925 12.1875 25.1875 C12.5175 28.1575 12.8475 31.1275 13.1875 34.1875 C6.60467508 36.42846167 0.55154612 37.3934788 -6.125 35 C-10.05638623 32.34859999 -12.35833635 29.72968179 -13.7109375 25.13671875 C-15.69880333 11.53124362 -15.69880333 11.53124362 -11.62890625 5.40625 C-7.90119741 0.71619496 -5.81952743 0.03587871 0 0 Z " fill="#83D7DB" transform="translate(289.8125,1004.8125)"/>
<path d="M0 0 C1.01964844 0.00386719 2.03929687 0.00773438 3.08984375 0.01171875 C7.10629671 0.41811412 10.02588461 1.20184066 12.8125 4.1875 C15.51275282 8.77792979 15.22808536 13.09656108 15.0625 18.3125 C14.7325 19.3025 14.4025 20.2925 14.0625 21.3125 C8.7825 21.3125 3.5025 21.3125 -1.9375 21.3125 C-1.6075 22.9625 -1.2775 24.6125 -0.9375 26.3125 C5.4975 25.8175 5.4975 25.8175 12.0625 25.3125 C12.3925 28.2825 12.7225 31.2525 13.0625 34.3125 C6.47967508 36.55346167 0.42654612 37.5184788 -6.25 35.125 C-10.1823173 32.47297205 -12.43648186 29.81555441 -13.9375 25.3125 C-14.11181213 22.69210286 -14.21434435 20.12187916 -14.25 17.5 C-14.29350586 16.45102539 -14.29350586 16.45102539 -14.33789062 15.38085938 C-14.40047011 10.23490037 -13.32934503 7.381526 -9.9375 3.3125 C-6.751951 0.16668758 -4.41428685 -0.07236536 0 0 Z " fill="#83D7DB" transform="translate(321.9375,1004.6875)"/>
<path d="M0 0 C1.299375 -0.02126953 1.299375 -0.02126953 2.625 -0.04296875 C5 0.1875 5 0.1875 8 2.1875 C8.99 1.5275 9.98 0.8675 11 0.1875 C17.45283019 0.64033019 17.45283019 0.64033019 20 3.1875 C20.25 6.1875 20.25 6.1875 20 9.1875 C17.57477793 11.61272207 16.8279321 11.48379254 13.5 11.5 C12.7059375 11.51675781 11.911875 11.53351562 11.09375 11.55078125 C10.4028125 11.43089844 9.711875 11.31101562 9 11.1875 C8.34 10.1975 7.68 9.2075 7 8.1875 C6.67 9.1775 6.34 10.1675 6 11.1875 C4.02 11.1875 2.04 11.1875 0 11.1875 C0 11.8475 0 12.5075 0 13.1875 C1.65 13.1875 3.3 13.1875 5 13.1875 C5 16.4875 5 19.7875 5 23.1875 C3.35 23.1875 1.7 23.1875 0 23.1875 C0 31.1075 0 39.0275 0 47.1875 C-3.96 47.1875 -7.92 47.1875 -12 47.1875 C-12 38.9375 -12 30.6875 -12 22.1875 C-12.99 22.1875 -13.98 22.1875 -15 22.1875 C-15 19.5475 -15 16.9075 -15 14.1875 C-14.01 14.1875 -13.02 14.1875 -12 14.1875 C-12.04640625 13.58421875 -12.0928125 12.9809375 -12.140625 12.359375 C-12.43727749 5.79064136 -12.43727749 5.79064136 -10.1875 2.6875 C-6.78975787 0.35761969 -4.02026148 0.02991266 0 0 Z " fill="#82D6DA" transform="translate(483,992.8125)"/>
<path d="M0 0 C8.25 0 16.5 0 25 0 C25 3.63 25 7.26 25 11 C21.04 11 17.08 11 13 11 C13 13.31 13 15.62 13 18 C15.97 18 18.94 18 22 18 C22 21.3 22 24.6 22 28 C19.03 28 16.06 28 13 28 C13 33.61 13 39.22 13 45 C8.71 45 4.42 45 0 45 C0 30.15 0 15.3 0 0 Z " fill="#84D7DB" transform="translate(226,995)"/>
<path d="M0 0 C3.63 0 7.26 0 11 0 C11 2.31 11 4.62 11 7 C13.31 7 15.62 7 18 7 C17.67 9.97 17.34 12.94 17 16 C15.02 16 13.04 16 11 16 C11 21.28 11 26.56 11 32 C12.98 31.67 14.96 31.34 17 31 C17 34.3 17 37.6 17 41 C14.16921909 41.94359364 12.0809686 42.25819881 9.125 42.375 C8.28195312 42.42398437 7.43890625 42.47296875 6.5703125 42.5234375 C2.59364788 41.71360002 1.31630289 40.32017129 -1 37 C-1.5982916 33.37304323 -1.47240644 29.85058758 -1.3125 26.1875 C-1.28994141 25.20845703 -1.26738281 24.22941406 -1.24414062 23.22070312 C-1.18539727 20.81222545 -1.10332129 18.40690922 -1 16 C-2.32 15.67 -3.64 15.34 -5 15 C-5 12.36 -5 9.72 -5 7 C-3.35 7 -1.7 7 0 7 C0 4.69 0 2.38 0 0 Z " fill="#83D7DB" transform="translate(959,999)"/>
<path d="M0 0 C3.63 0 7.26 0 11 0 C11 2.31 11 4.62 11 7 C13.31 7 15.62 7 18 7 C17.67 9.97 17.34 12.94 17 16 C15.02 16 13.04 16 11 16 C11 21.28 11 26.56 11 32 C12.98 31.67 14.96 31.34 17 31 C17 34.3 17 37.6 17 41 C14.16921909 41.94359364 12.0809686 42.25819881 9.125 42.375 C8.28195312 42.42398437 7.43890625 42.47296875 6.5703125 42.5234375 C2.59364788 41.71360002 1.31630289 40.32017129 -1 37 C-1.5982916 33.37304323 -1.47240644 29.85058758 -1.3125 26.1875 C-1.28994141 25.20845703 -1.26738281 24.22941406 -1.24414062 23.22070312 C-1.18539727 20.81222545 -1.10332129 18.40690922 -1 16 C-2.32 15.67 -3.64 15.34 -5 15 C-5 12.36 -5 9.72 -5 7 C-3.35 7 -1.7 7 0 7 C0 4.69 0 2.38 0 0 Z " fill="#83D7DB" transform="translate(700,999)"/>
<path d="M0 0 C11.88 0 23.76 0 36 0 C36 5.28 36 10.56 36 16 C24.12 16 12.24 16 0 16 C0 10.72 0 5.44 0 0 Z " fill="#02AEB6" transform="translate(579,892)"/>
<path d="M0 0 C3.63 0 7.26 0 11 0 C11 0.66 11 1.32 11 2 C11.99 1.34 12.98 0.68 14 0 C17.1875 -0.125 17.1875 -0.125 20 0 C20 3.63 20 7.26 20 11 C17.69 11 15.38 11 13 11 C12.67 18.92 12.34 26.84 12 35 C8.04 35 4.08 35 0 35 C0 23.45 0 11.9 0 0 Z " fill="#82D6DA" transform="translate(253,1005)"/>
<path d="M0 0 C3.63 0 7.26 0 11 0 C11.33 11.22 11.66 22.44 12 34 C8.04 34 4.08 34 0 34 C0 22.78 0 11.56 0 0 Z " fill="#80D6DA" transform="translate(491,1006)"/>
<path d="M0 0 C2.83357867 4.01423645 3.16761625 5.97754089 2.375 10.8125 C1 14 1 14 -2 16 C-6.96760086 17.38630722 -11.30145631 17.06984304 -16 15 C-18.24796038 12.68391961 -18.94744677 11.22305695 -19.0859375 8 C-18.85551305 4.7012921 -18.47387879 2.50656009 -16.1875 0.0625 C-10.69463851 -2.6054613 -5.64726062 -2.26082836 0 0 Z " fill="#02AEB6" transform="translate(768,855)"/>
<path d="M0 0 C2.83357867 4.01423645 3.16761625 5.97754089 2.375 10.8125 C1 14 1 14 -2 16 C-7.26540181 17.46941446 -10.90770188 16.61256107 -16 15 C-18.8293078 12.1706922 -18.73345379 9.93155659 -19 6 C-18.5 3.25 -18.5 3.25 -17 1 C-11.40738175 -2.61189929 -6.1223277 -2.76598019 0 0 Z " fill="#02AEB6" transform="translate(837,855)"/>
<path d="M0 0 C2.83357867 4.01423645 3.16761625 5.97754089 2.375 10.8125 C1 14 1 14 -2 16 C-7.26540181 17.46941446 -10.90770188 16.61256107 -16 15 C-18.8293078 12.1706922 -18.73345379 9.93155659 -19 6 C-18.5 3.25 -18.5 3.25 -17 1 C-11.40738175 -2.61189929 -6.1223277 -2.76598019 0 0 Z " fill="#02AEB6" transform="translate(458,855)"/>
<path d="M0 0 C2.375 0.75 2.375 0.75 3.375 1.75 C3.62801239 5.88962283 3.56022549 10.04105996 3.5625 14.1875 C3.57474609 15.35861328 3.58699219 16.52972656 3.59960938 17.73632812 C3.60250977 19.41178711 3.60250977 19.41178711 3.60546875 21.12109375 C3.60957764 22.15161865 3.61368652 23.18214355 3.61791992 24.24389648 C3.375 26.75 3.375 26.75 1.375 28.75 C-1.125 29 -1.125 29 -3.625 28.75 C-6.72011984 25.65488016 -5.91906478 22.41701591 -5.94726562 18.18945312 C-5.94404297 17.07505859 -5.94082031 15.96066406 -5.9375 14.8125 C-5.95361328 13.70197266 -5.96972656 12.59144531 -5.98632812 11.44726562 C-5.98697266 10.38314453 -5.98761719 9.31902344 -5.98828125 8.22265625 C-5.99126221 7.24562744 -5.99424316 6.26859863 -5.99731445 5.26196289 C-5.625 2.75 -5.625 2.75 -4.26635742 0.89233398 C-2.625 -0.25 -2.625 -0.25 0 0 Z " fill="#F8FCFC" transform="translate(649.625,888.25)"/>
<path d="M0 0 C0.66 0.33 1.32 0.66 2 1 C2.50244141 2.76245117 2.50244141 2.76245117 2.8515625 5.04296875 C2.98046875 5.86990234 3.109375 6.69683594 3.2421875 7.54882812 C3.36851562 8.41958984 3.49484375 9.29035156 3.625 10.1875 C3.7590625 11.03892578 3.893125 11.89035156 4.03125 12.76757812 C4.70603436 17.21908921 5.16262982 21.48332645 5 26 C2.03 26 -0.94 26 -4 26 C-2.38297872 4.76595745 -2.38297872 4.76595745 0 0 Z " fill="#E8F7F8" transform="translate(306,879)"/>
<path d="M0 0 C7.92 0 15.84 0 24 0 C24 2.31 24 4.62 24 7 C16.41 7 8.82 7 1 7 C0.67 4.69 0.34 2.38 0 0 Z " fill="#FDFDFD" transform="translate(508,431)"/>
<path d="M0 0 C0.38800781 0.47050781 0.77601563 0.94101562 1.17578125 1.42578125 C3.47502924 3.40992887 5.21311811 3.68533163 8.1875 4.1875 C9.08855469 4.34605469 9.98960937 4.50460937 10.91796875 4.66796875 C11.60503906 4.77753906 12.29210937 4.88710938 13 5 C13 5.33 13 5.66 13 6 C9.37 6 5.74 6 2 6 C2 17.22 2 28.44 2 40 C1.67 40 1.34 40 1 40 C0.67 31.42 0.34 22.84 0 14 C-0.33 14 -0.66 14 -1 14 C-1 11.36 -1 8.72 -1 6 C-2.65 6 -4.3 6 -6 6 C-6 5.34 -6 4.68 -6 4 C-4.02 4 -2.04 4 0 4 C0 2.68 0 1.36 0 0 Z " fill="#D8F0F1" transform="translate(489,1000)"/>
<path d="M0 0 C1.32 0 2.64 0 4 0 C4 5.28 4 10.56 4 16 C2.68 16.33 1.36 16.66 0 17 C-1.49341703 14.01316593 -1.13175178 11.25600226 -1.125 7.9375 C-1.12757813 6.66777344 -1.13015625 5.39804687 -1.1328125 4.08984375 C-1 1 -1 1 0 0 Z " fill="#FCFDFD" transform="translate(780,1015)"/>
<path d="M0 0 C1.32 0 2.64 0 4 0 C4 5.28 4 10.56 4 16 C2.68 16 1.36 16 0 16 C-1.36538938 13.26922124 -1.13231826 11.04439633 -1.125 8 C-1.12757813 6.9275 -1.13015625 5.855 -1.1328125 4.75 C-1 2 -1 2 0 0 Z " fill="#FEFEFE" transform="translate(554,1015)"/>
<path d="M0 0 C1.32 0 2.64 0 4 0 C4 5.28 4 10.56 4 16 C2.68 16 1.36 16 0 16 C-1.36538938 13.26922124 -1.13231826 11.04439633 -1.125 8 C-1.12757813 6.9275 -1.13015625 5.855 -1.1328125 4.75 C-1 2 -1 2 0 0 Z " fill="#FEFEFE" transform="translate(433,1015)"/>
<path d="M0 0 C0.02689216 1.47906892 0.04634621 2.95827483 0.0625 4.4375 C0.07410156 5.26121094 0.08570313 6.08492187 0.09765625 6.93359375 C0 9 0 9 -1 10 C-4 10.125 -4 10.125 -7 10 C-8 9 -8 9 -8.25 6.125 C-8 3 -8 3 -6.8125 1.125 C-4.43963721 -0.34781139 -2.74086056 -0.22223194 0 0 Z " fill="#F0F9F9" transform="translate(871,908)"/>
<path d="M0 0 C0 1.98 0 3.96 0 6 C-1.65 5.67 -3.3 5.34 -5 5 C-5 3.68 -5 2.36 -5 1 C-3 0 -3 0 0 0 Z " fill="#F3F9F9" transform="translate(906,1026)"/>
<path d="M0 0 C0 1.98 0 3.96 0 6 C-1.65 5.67 -3.3 5.34 -5 5 C-5 3.68 -5 2.36 -5 1 C-3 0 -3 0 0 0 Z " fill="#F3F9F9" transform="translate(681,1026)"/>
<path d="M0 0 C0 1.98 0 3.96 0 6 C-1.65 5.67 -3.3 5.34 -5 5 C-5 3.68 -5 2.36 -5 1 C-3 0 -3 0 0 0 Z " fill="#F3F9F9" transform="translate(370,1026)"/>
<path d="M0 0 C1.65 0.33 3.3 0.66 5 1 C5 2.32 5 3.64 5 5 C3.02 5 1.04 5 -1 5 C-0.67 3.35 -0.34 1.7 0 0 Z " fill="#FAFCFC" transform="translate(321,1015)"/>
<path d="M0 0 C1.65 0.33 3.3 0.66 5 1 C5 2.32 5 3.64 5 5 C3.02 5 1.04 5 -1 5 C-0.67 3.35 -0.34 1.7 0 0 Z " fill="#FAFCFC" transform="translate(289,1015)"/>
</svg>
